<svg id="Layer_1" enable-background="new 0 0 490.667 490.667" viewBox="0 0 490.667 490.667" xmlns="http://www.w3.org/2000/svg"><g><g><g><path d="m224 106.667c-5.888 0-10.667 4.779-10.667 10.667v25.408l-27.221-13.611c-5.269-2.624-11.669-.491-14.315 4.779-2.645 5.269-.491 11.669 4.779 14.315l36.779 18.389v68.053h-46.741l-18.389-36.779c-2.645-5.269-9.045-7.381-14.315-4.779-5.269 2.645-7.403 9.045-4.779 14.315l13.611 27.221h-25.408c-5.888 0-10.667 4.779-10.667 10.667s4.779 10.667 10.667 10.667h25.408l-13.611 27.221c-2.645 5.269-.491 11.669 4.779 14.315 1.536.768 3.157 1.131 4.757 1.131 3.925 0 7.68-2.155 9.557-5.888l18.389-36.779h46.72v68.075l-36.779 18.389c-5.269 2.645-7.403 9.045-4.779 14.315 1.877 3.733 5.632 5.888 9.557 5.888 1.6 0 3.221-.363 4.757-1.131l27.221-13.611v25.408c0 5.888 4.779 10.667 10.667 10.667s10.667-4.779 10.667-10.667v-256c.023-5.867-4.756-10.645-10.644-10.645z"/><path d="m266.667 192c23.616 0 35.179-7.723 44.48-13.931 6.656-4.459 11.051-7.403 19.52-7.403 17.152 0 24.661 5.013 32.619 10.347 7.701 5.141 16.448 10.987 31.381 10.987 5.888 0 10.667-4.779 10.667-10.667s-4.779-10.667-10.667-10.667c-8.469 0-12.864-2.944-19.52-7.403-9.301-6.208-20.864-13.931-44.48-13.931-14.933 0-23.68 5.845-31.381 10.987-7.957 5.333-15.467 10.347-32.619 10.347-5.888 0-10.667 4.779-10.667 10.667s4.779 10.667 10.667 10.667z"/><path d="m394.667 298.667c-8.469 0-12.864-2.944-19.52-7.403-9.301-6.208-20.864-13.931-44.48-13.931-14.933 0-23.68 5.845-31.381 10.987-7.957 5.333-15.467 10.347-32.619 10.347-5.888 0-10.667 4.779-10.667 10.667s4.779 10.666 10.667 10.666c23.616 0 35.179-7.723 44.48-13.931 6.656-4.459 11.051-7.403 19.52-7.403 17.152 0 24.661 5.013 32.619 10.347 7.701 5.141 16.448 10.987 31.381 10.987 5.888 0 10.667-4.779 10.667-10.667s-4.779-10.666-10.667-10.666z"/><path d="m394.667 234.667c-8.469 0-12.864-2.944-19.52-7.403-9.301-6.208-20.864-13.931-44.48-13.931-14.933 0-23.68 5.845-31.381 10.987-7.957 5.333-15.467 10.347-32.619 10.347-5.888 0-10.667 4.779-10.667 10.667s4.779 10.666 10.667 10.666c23.616 0 35.179-7.723 44.48-13.931 6.656-4.459 11.051-7.403 19.52-7.403 17.152 0 24.661 5.013 32.619 10.347 7.701 5.141 16.448 10.987 31.381 10.987 5.888 0 10.667-4.779 10.667-10.667s-4.779-10.666-10.667-10.666z"/><path d="m245.333 0c-135.274 0-245.333 110.059-245.333 245.333s110.059 245.333 245.333 245.333 245.333-110.059 245.333-245.333-110.058-245.333-245.333-245.333zm0 469.333c-123.52 0-224-100.48-224-224s100.48-224 224-224 224 100.48 224 224-100.48 224-224 224z"/></g></g></g><g/><g/><g/><g/><g/><g/><g/><g/><g/><g/><g/><g/><g/><g/><g/></svg>