<?xml version="1.0" encoding="utf-8"?>
<!-- Generator: Adobe Illustrator 16.0.0, SVG Export Plug-In . SVG Version: 6.00 Build 0)  -->
<!DOCTYPE svg PUBLIC "-//W3C//DTD SVG 1.1//EN" "http://www.w3.org/Graphics/SVG/1.1/DTD/svg11.dtd">
<svg version="1.1" id="Layer_1" xmlns="http://www.w3.org/2000/svg" xmlns:xlink="http://www.w3.org/1999/xlink" x="0px" y="0px"
	 width="100px" height="78.334px" viewBox="0 0 100 78.334" enable-background="new 0 0 100 78.334" xml:space="preserve">
<g>
	<g>
		<path fill="#FFFFFF" d="M51.107,49.129c-7.011-5.538-14.022-11.076-21.033-16.614c-1.083-0.855-3.566,0.674-2.215,1.741
			c7.011,5.538,14.022,11.076,21.033,16.614C49.975,51.726,52.459,50.197,51.107,49.129L51.107,49.129z"/>
	</g>
</g>
<g>
	<g>
		<path fill="#FFFFFF" d="M50.977,50.72c7.011-5.538,14.022-11.076,21.033-16.614c1.544-1.22-0.763-2.38-1.953-1.439
			c-7.011,5.538-14.022,11.076-21.033,16.614C47.479,50.5,49.786,51.66,50.977,50.72L50.977,50.72z"/>
	</g>
</g>
</svg>
