<?xml version="1.0" encoding="utf-8"?>
<!-- Generator: Adobe Illustrator 16.0.0, SVG Export Plug-In . SVG Version: 6.00 Build 0)  -->
<!DOCTYPE svg PUBLIC "-//W3C//DTD SVG 1.1//EN" "http://www.w3.org/Graphics/SVG/1.1/DTD/svg11.dtd">
<svg version="1.1" id="Capa_1" xmlns="http://www.w3.org/2000/svg" xmlns:xlink="http://www.w3.org/1999/xlink" x="0px" y="0px"
	 width="400px" height="400px" viewBox="0 0 400 400" enable-background="new 0 0 400 400" xml:space="preserve">
<g>
	<path fill="#3B9944" d="M199.992,0C89.549,0,0,89.549,0,199.992C0,310.434,89.549,400,199.992,400
		C310.434,400,400,310.434,400,199.992C400,89.549,310.434,0,199.992,0z M241.625,309.96c-10.294,4.063-18.488,7.146-24.635,9.278
		c-6.129,2.133-13.257,3.199-21.367,3.199c-12.461,0-22.163-3.047-29.071-9.125c-6.908-6.078-10.345-13.782-10.345-23.146
		c0-3.64,0.254-7.364,0.762-11.157c0.525-3.793,1.354-8.06,2.489-12.852l12.885-45.511c1.134-4.368,2.117-8.517,2.896-12.376
		c0.779-3.895,1.151-7.467,1.151-10.718c0-5.791-1.202-9.854-3.59-12.14c-2.421-2.286-6.976-3.403-13.765-3.403
		c-3.319,0-6.739,0.491-10.244,1.523c-3.471,1.067-6.485,2.032-8.957,2.98l3.403-14.019c8.432-3.437,16.508-6.383,24.211-8.821
		c7.704-2.472,14.984-3.691,21.841-3.691c12.377,0,21.926,3.014,28.647,8.974c6.688,5.977,10.058,13.748,10.058,23.297
		c0,1.981-0.237,5.469-0.694,10.447c-0.458,4.994-1.321,9.549-2.573,13.73l-12.817,45.376c-1.05,3.64-1.981,7.806-2.827,12.461
		c-0.83,4.656-1.236,8.212-1.236,10.599c0,6.027,1.338,10.143,4.047,12.326c2.675,2.185,7.365,3.285,14.002,3.285
		c3.133,0,6.637-0.559,10.599-1.643c3.929-1.084,6.772-2.049,8.567-2.879L241.625,309.96z M239.356,125.782
		c-5.977,5.553-13.173,8.33-21.587,8.33c-8.398,0-15.645-2.777-21.672-8.33c-5.994-5.554-9.024-12.309-9.024-20.199
		c0-7.873,3.047-14.646,9.024-20.25c6.028-5.622,13.274-8.415,21.672-8.415c8.414,0,15.627,2.793,21.587,8.415
		c5.978,5.604,8.974,12.376,8.974,20.25C248.33,113.49,245.334,120.229,239.356,125.782z"/>
</g>
</svg>
