<?xml version="1.0" encoding="utf-8"?>
<!-- Generator: Adobe Illustrator 16.0.0, SVG Export Plug-In . SVG Version: 6.00 Build 0)  -->
<!DOCTYPE svg PUBLIC "-//W3C//DTD SVG 1.1//EN" "http://www.w3.org/Graphics/SVG/1.1/DTD/svg11.dtd">
<svg version="1.1" id="Capa_1" xmlns="http://www.w3.org/2000/svg" xmlns:xlink="http://www.w3.org/1999/xlink" x="0px" y="0px"
	 width="400px" height="400px" viewBox="0 0 400 400" enable-background="new 0 0 400 400" xml:space="preserve">
<g>
	<path fill="#FFFFFF" d="M201.305,87.66c-28.191,0-51.136,22.945-51.136,51.135s22.945,51.135,51.136,51.135
		c28.189,0,51.135-22.945,51.135-51.135S229.494,87.66,201.305,87.66z M201.305,175.32c-20.141,0-36.526-16.385-36.526-36.525
		c0-20.14,16.385-36.525,36.526-36.525c20.139,0,36.524,16.385,36.524,36.525C237.829,158.935,221.443,175.32,201.305,175.32z"/>
	<path fill="#FFFFFF" d="M299.066,41.032C272.607,14.573,237.428,0,200.011,0c-37.423,0-72.597,14.573-99.056,41.032
		C51.99,89.99,45.905,182.106,87.777,237.916L200.011,400l112.066-161.857C354.117,182.106,348.032,89.99,299.066,41.032z
		 M300.229,229.604L200.011,374.33L99.633,229.377C61.654,178.739,67.097,95.549,111.292,51.361
		c23.698-23.697,55.204-36.751,88.719-36.751c33.516,0,65.022,13.054,88.727,36.751C332.933,95.549,338.375,178.739,300.229,229.604
		z"/>
</g>
</svg>
