<?xml version="1.0" encoding="utf-8"?>
<!-- Generator: Adobe Illustrator 16.0.0, SVG Export Plug-In . SVG Version: 6.00 Build 0)  -->
<!DOCTYPE svg PUBLIC "-//W3C//DTD SVG 1.1//EN" "http://www.w3.org/Graphics/SVG/1.1/DTD/svg11.dtd">
<svg version="1.1" id="Capa_1" xmlns="http://www.w3.org/2000/svg" xmlns:xlink="http://www.w3.org/1999/xlink" x="0px" y="0px"
	 width="400px" height="400px" viewBox="0 0 400 400" enable-background="new 0 0 400 400" xml:space="preserve">
<g>
	<g>
		<path fill="#FFFFFF" d="M351.169,47.796H48.914C21.933,47.796,0,69.729,0,96.71v206.58c0,26.981,21.933,48.913,48.914,48.913
			h302.172c26.981,0,48.914-21.932,48.914-48.913V96.793C400.083,69.812,378.15,47.796,351.169,47.796z M377.736,303.29
			c0,14.649-11.918,26.567-26.567,26.567H48.914c-14.649,0-26.567-11.918-26.567-26.567V96.793
			c0-14.649,11.918-26.567,26.567-26.567h302.172c14.649,0,26.567,11.918,26.567,26.567V303.29H377.736z"/>
		<path fill="#FFFFFF" d="M252.266,197.435l97.827-87.73c4.554-4.138,4.966-11.173,0.828-15.808
			c-4.139-4.552-11.173-4.966-15.808-0.828L200.207,214.152l-26.319-23.505c-0.083-0.083-0.166-0.166-0.166-0.248
			c-0.579-0.58-1.159-1.076-1.821-1.573L64.805,92.986c-4.635-4.138-11.67-3.725-15.808,0.91c-4.138,4.635-3.725,11.67,0.91,15.808
			l98.986,88.475l-98.572,92.282c-4.469,4.223-4.718,11.256-0.497,15.809c2.234,2.317,5.214,3.56,8.193,3.56
			c2.731,0,5.463-0.993,7.615-2.979l100.062-93.605l27.146,24.25c2.152,1.904,4.8,2.814,7.449,2.814c2.648,0,5.38-0.994,7.449-2.896
			l27.892-24.996l99.483,94.518c2.15,2.068,4.966,3.063,7.695,3.063c2.979,0,5.877-1.159,8.111-3.478
			c4.221-4.469,4.056-11.586-0.414-15.809L252.266,197.435z"/>
	</g>
</g>
</svg>
