<?xml version="1.0" encoding="utf-8"?>
<!-- Generator: Adobe Illustrator 16.0.0, SVG Export Plug-In . SVG Version: 6.00 Build 0)  -->
<!DOCTYPE svg PUBLIC "-//W3C//DTD SVG 1.1//EN" "http://www.w3.org/Graphics/SVG/1.1/DTD/svg11.dtd">
<svg version="1.1" id="Capa_1" xmlns="http://www.w3.org/2000/svg" xmlns:xlink="http://www.w3.org/1999/xlink" x="0px" y="0px"
	 width="327.497px" height="327.372px" viewBox="-0.333 25.372 327.497 327.372"
	 enable-background="new -0.333 25.372 327.497 327.372" xml:space="preserve">
<g>
	<g>
		<g>
			<path d="M319.535,284.103l-50.531-50.537c-10.064-10.025-26.732-9.721-37.148,0.699l-25.459,25.453
				c-1.607-0.887-3.271-1.813-5.023-2.795c-16.074-8.908-38.079-21.117-61.232-44.289c-23.223-23.219-35.443-45.256-44.378-61.344
				c-0.943-1.704-1.846-3.347-2.738-4.907l17.086-17.061l8.4-8.411c10.432-10.435,10.72-27.097,0.678-37.151L68.656,33.218
				c-10.042-10.04-26.717-9.735-37.148,0.699L17.266,48.24l0.389,0.386c-4.775,6.093-8.766,13.121-11.736,20.7
				c-2.737,7.214-4.442,14.098-5.221,20.996c-6.672,55.316,18.605,105.869,87.206,174.471
				c94.826,94.82,171.244,87.656,174.541,87.307c7.178-0.859,14.061-2.574,21.053-5.289c7.514-2.936,14.537-6.92,20.627-11.686
				l0.311,0.277l14.426-14.129C329.271,310.841,329.572,294.171,319.535,284.103z"/>
		</g>
	</g>
</g>
</svg>
