<svg height="645pt" viewBox="-201 -20 645 645.33307" width="645pt" xmlns="http://www.w3.org/2000/svg"><path d="m122.835938 243.671875c0 7.132813-5.789063 12.914063-12.917969 12.914063-7.132813 0-12.914063-5.78125-12.914063-12.914063 0-7.128906 5.78125-12.914063 12.914063-12.914063 7.128906 0 12.917969 5.785157 12.917969 12.914063zm0 0"/><path d="m139.566406 72.265625c0 16.375-13.273437 29.648437-29.648437 29.648437s-29.652344-13.273437-29.652344-29.648437c0-16.378906 13.277344-29.648437 29.652344-29.648437s29.648437 13.269531 29.648437 29.648437zm0 0"/><path d="m109.917969 179.890625c-35.226563 0-63.78125 28.554687-63.78125 63.78125 0 35.230469 28.554687 63.785156 63.78125 63.785156 35.226562 0 63.78125-28.554687 63.78125-63.785156-.039063-35.210937-28.570313-63.742187-63.78125-63.78125zm0 94.195313c-16.800781.003906-30.417969-13.613282-30.417969-30.414063 0-16.796875 13.617188-30.414063 30.417969-30.414063 16.796875 0 30.417969 13.617188 30.417969 30.414063-.019532 16.792969-13.628907 30.398437-30.417969 30.414063zm0 0"/><path d="m223.667969 0h-227.5v350h227.5zm-113.75 25.117188c26.042969 0 47.148437 21.109374 47.148437 47.148437s-21.105468 47.148437-47.148437 47.148437c-26.039063 0-47.152344-21.109374-47.152344-47.148437.03125-26.027344 21.125-47.121094 47.152344-47.148437zm0 299.839843c-44.890625 0-81.28125-36.394531-81.28125-81.285156 0-44.886719 36.390625-81.28125 81.28125-81.28125s81.28125 36.394531 81.28125 81.28125c-.050781 44.871094-36.410157 81.234375-81.28125 81.285156zm0 0"/><path d="m117.417969 478.289062v-118.289062h-17.5v120.789062l-109.269531 109.273438c-3.417969 3.417969-3.417969 8.957031 0 12.375 3.417968 3.417969 8.953124 3.417969 12.371093 0l96.898438-96.894531v90.707031c0 4.832031 3.917969 8.75 8.75 8.75s8.75-3.917969 8.75-8.75v-93.207031l99.394531 99.394531c3.417969 3.417969 8.960938 3.417969 12.375 0 3.417969-3.417969 3.417969-8.957031 0-12.375zm0 0"/></svg>