<?xml version="1.0" encoding="utf-8"?>
<!-- Generator: Adobe Illustrator 16.0.0, SVG Export Plug-In . SVG Version: 6.00 Build 0)  -->
<!DOCTYPE svg PUBLIC "-//W3C//DTD SVG 1.1//EN" "http://www.w3.org/Graphics/SVG/1.1/DTD/svg11.dtd">
<svg version="1.1" id="Capa_1" xmlns="http://www.w3.org/2000/svg" xmlns:xlink="http://www.w3.org/1999/xlink" x="0px" y="0px"
	 width="400px" height="400px" viewBox="0 0 400 400" enable-background="new 0 0 400 400" xml:space="preserve">
<g>
	<path d="M81.508,265.893c39.453,47.162,86.946,84.295,141.152,110.568c20.638,9.78,48.238,21.385,78.988,23.373
		c1.905,0.083,3.729,0.166,5.637,0.166c20.638,0,37.215-7.128,50.725-21.799c0.083-0.082,0.249-0.248,0.332-0.414
		c4.808-5.803,10.277-11.023,15.996-16.577c3.896-3.729,7.874-7.625,11.688-11.604c17.654-18.399,17.654-41.773-0.165-59.594
		l-49.813-49.813c-8.454-8.786-18.565-13.428-29.176-13.428c-10.607,0-20.805,4.642-29.507,13.345l-29.673,29.673
		c-2.735-1.575-5.553-2.984-8.205-4.311c-3.315-1.658-6.383-3.232-9.117-4.974c-27.021-17.157-51.554-39.536-75.011-68.297
		c-11.852-15.002-19.809-27.601-25.362-40.448c7.791-7.045,15.085-14.422,22.13-21.633c2.487-2.569,5.056-5.139,7.625-7.708
		c8.952-8.952,13.759-19.312,13.759-29.838s-4.724-20.887-13.759-29.838l-24.7-24.7c-2.901-2.901-5.636-5.719-8.454-8.62
		c-5.47-5.636-11.189-11.438-16.826-16.66C101.234,4.393,91.205,0,80.596,0C70.07,0,59.958,4.393,51.089,12.847L20.09,43.846
		C8.818,55.118,2.436,68.794,1.11,84.625c-1.575,19.81,2.072,40.862,11.521,66.308C27.136,190.303,49.017,226.854,81.508,265.893z
		 M21.333,86.366c0.995-11.024,5.222-20.224,13.179-28.181l30.833-30.833c4.807-4.642,10.112-7.045,15.25-7.045
		c5.056,0,10.195,2.404,14.919,7.211c5.553,5.139,10.775,10.526,16.411,16.245c2.818,2.901,5.719,5.802,8.62,8.786l24.699,24.699
		c5.139,5.139,7.792,10.361,7.792,15.5s-2.652,10.361-7.792,15.5c-2.569,2.569-5.139,5.222-7.708,7.791
		c-7.708,7.791-14.919,15.168-22.876,22.213c-0.166,0.166-0.249,0.249-0.415,0.415c-6.879,6.879-5.802,13.427-4.145,18.4
		c0.083,0.249,0.166,0.415,0.249,0.663c6.382,15.333,15.25,29.921,29.092,47.329c24.865,30.666,51.057,54.453,79.9,72.771
		c3.563,2.321,7.377,4.146,10.941,5.968c3.315,1.657,6.382,3.232,9.116,4.975c0.332,0.166,0.58,0.33,0.912,0.496
		c2.734,1.409,5.388,2.072,8.039,2.072c6.631,0,10.941-4.229,12.351-5.636l31-31c4.807-4.808,10.028-7.376,15.167-7.376
		c6.3,0,11.438,3.896,14.671,7.376l49.979,49.896c9.945,9.947,9.863,20.723-0.249,31.248c-3.48,3.729-7.128,7.295-11.022,11.023
		c-5.802,5.637-11.854,11.438-17.323,17.986c-9.531,10.276-20.887,15.084-35.558,15.084c-1.408,0-2.9-0.082-4.311-0.166
		c-27.187-1.74-52.466-12.35-71.446-21.383c-51.553-24.949-96.809-60.341-134.354-105.265
		c-30.916-37.215-51.72-71.861-65.479-108.993C23.24,121.343,20.007,103.025,21.333,86.366z"/>
</g>
</svg>
