<?xml version="1.0" encoding="utf-8"?>
<!-- Generator: Adobe Illustrator 16.0.0, SVG Export Plug-In . SVG Version: 6.00 Build 0)  -->
<!DOCTYPE svg PUBLIC "-//W3C//DTD SVG 1.1//EN" "http://www.w3.org/Graphics/SVG/1.1/DTD/svg11.dtd">
<svg version="1.1" id="Capa_1" xmlns="http://www.w3.org/2000/svg" xmlns:xlink="http://www.w3.org/1999/xlink" x="0px" y="0px"
	 width="400px" height="334px" viewBox="0 33.5 400 334" enable-background="new 0 33.5 400 334" xml:space="preserve">
<g>
	<g>
		<path fill="#5DA9DD" d="M400,75.975c-14.875,6.525-30.725,10.85-47.25,12.95c17-10.15,29.975-26.1,36.075-45.325
			c-15.853,9.45-33.353,16.125-52,19.85c-15.05-16.025-36.5-25.95-59.9-25.95c-45.399,0-81.95,36.85-81.95,82.025
			c0,6.5,0.55,12.75,1.9,18.7c-68.175-3.325-128.5-36-169.025-85.775C20.775,64.725,16.625,78.775,16.625,93.9
			c0,28.4,14.625,53.575,36.425,68.15c-13.175-0.25-26.1-4.075-37.05-10.1c0,0.25,0,0.575,0,0.9c0,39.85,28.425,72.95,65.7,80.575
			c-6.675,1.825-13.95,2.7-21.5,2.7c-5.25,0-10.55-0.3-15.525-1.4C55.3,267.2,85.45,291.075,121.3,291.85
			c-27.9,21.825-63.325,34.978-101.675,34.978c-6.725,0-13.175-0.302-19.625-1.125c36.325,23.425,79.375,36.8,125.8,36.8
			c150.9,0,233.4-125,233.4-233.35c0-3.625-0.125-7.125-0.3-10.6C375.175,107,388.85,92.575,400,75.975z"/>
	</g>
</g>
</svg>
