<?xml version="1.0" encoding="utf-8"?>
<!-- Generator: Adobe Illustrator 16.0.0, SVG Export Plug-In . SVG Version: 6.00 Build 0)  -->
<!DOCTYPE svg PUBLIC "-//W3C//DTD SVG 1.1//EN" "http://www.w3.org/Graphics/SVG/1.1/DTD/svg11.dtd">
<svg version="1.1" id="Layer_1" xmlns="http://www.w3.org/2000/svg" xmlns:xlink="http://www.w3.org/1999/xlink" x="0px" y="0px"
	 width="163.281px" height="525.029px" viewBox="568.281 79.361 163.281 525.029"
	 enable-background="new 568.281 79.361 163.281 525.029" xml:space="preserve">
<g>
	<g>
		<path fill="none" stroke="#000000" stroke-width="2" stroke-linecap="round" stroke-linejoin="round" stroke-miterlimit="10" d="
			M696.639,398.083c-0.321-2.94-0.646-5.883-0.971-8.826c0.453-0.163,0.906-0.326,1.361-0.492c-2.531-2.42-5.063-4.844-7.802-7.465
			c-18.26,8.668-25.233,24.404-28.256,42.787c-1.957,11.893-3.637,23.842-6.022,35.648c-2.883,14.275-13.295,23.75-23.064,33.332
			c-4.26,4.18-9.77,7.08-15.039,10.791c7.443,3.354,13.49-0.186,20.621-3.758c0.447,1.824,0.834,3.398,1.221,4.973"/>
		<path fill="none" stroke="#000000" stroke-width="2" stroke-linecap="round" stroke-linejoin="round" stroke-miterlimit="10" d="
			M851.924,239.827c17.691,16.318,11.406,20.662,2.229,37.893c-10.22,4.82-18.039,14.418-30.457,14.949
			c-3.742,0.16-7.437,1.396-11.15,2.14"/>
		<path fill="none" stroke="#000000" stroke-width="2" stroke-linecap="round" stroke-linejoin="round" stroke-miterlimit="10" d="
			M738.246,485.757c0,4.951-0.32,9.932,0.061,14.855c1.265,16.373-2.639,31.98-6.807,47.539c-1.418,5.279,0.984,11.881-5.141,15.619
			"/>
		<path fill="none" stroke="#000000" stroke-width="2" stroke-linecap="round" stroke-linejoin="round" stroke-miterlimit="10" d="
			M753.85,224.968c-3.715,0.743-7.416,2.003-11.147,2.091c-4.195,0.102-8.412-1.194-12.629-1.252
			c-4.213-0.057-8.437,0.667-12.855,1.068c-3.758-3.37-7.822-7.012-11.844-10.617c-6.25,2.696-11.459,2.476-17.033-0.73
			c-3.004-1.729-7.303-1.21-11.018-1.705"/>
		<path fill="none" stroke="#000000" stroke-width="2" stroke-linecap="round" stroke-linejoin="round" stroke-miterlimit="10" d="
			M881.645,213.08c-0.288-6.466-0.575-12.931-0.862-19.396c0.947-0.175,1.891-0.351,2.838-0.527c1.074,2.43,3.178,4.913,3.057,7.283
			c-0.735,14.587-3.965,26.388-19.881,30.517c-1.572,0.407-2.934,1.568-4.479,2.16c-6.138,2.354-12.308,4.621-17.843,6.688
			c-3.274-1.584-5.971-2.889-9.147-4.427c-2.172,1.976-4.119,3.744-6.312,5.736c-8.018-2.586-9.26-1.923-10.52,6.148
			c-4.428,2.128-8.518,4.213-8.385,10.4c0.045,2.201-2.705,4.323-3.418,6.711c-1.472,4.916-3.773,10.199,2.373,14.693
			c4.151-1.256,8.354-2.527,12.889-3.9c2.578,0.969,5.725,2.15,8.979,3.374c4.455-9.108,17.927-8.549,18.81-20.782
			c-3.914-7.179-10.576-9.369-18.617-8.229c-8.152,1.156-15.85,3.184-17.193,13.982c3.601,3.525,7.767,3.301,11.894,0.684
			c0.672-0.425,0.094-2.822,0.094-4.309"/>
		<path fill="none" stroke="#000000" stroke-width="2" stroke-linecap="round" stroke-linejoin="round" stroke-miterlimit="10" d="
			M812.545,167.757c-0.494,0.495-1.156,1.509-1.461,1.412c-13.643-4.413-24.088-1.251-31.98,9.725
			c-2.17,3.016-4.2,6.188-6.737,8.867c-3.67,3.873-5.029,8.226-4.461,13.438c0.158,1.44,0.026,3.294-0.761,4.394
			c-3.616,5.063-2.454,9.364,1.763,13.027c-1.312,2.565-2.422,4.735-3.791,7.415c3.737,1.009,6.985,1.885,11.248,3.033
			c1.455-1.414,2.977-3.541,5.037-4.738c2.469-1.431,3.782-4.292,8.188-3.496c4.349,0.789,6.564-3.764,7.502-8.469
			c1.09-5.466,3.293-10.71,5.013-16.051c0.729-0.103,1.456-0.208,2.186-0.311c-2.107-1.846-4.215-3.689-6.23-5.453
			c0-1.742,0-3.724,0-6.076c-2.827,0-5.303,0-8.219,0c-8.385,7.453-12.024,18.071-8.297,26.063c2.459-1.915,4.844-3.772,7.229-5.63"
			/>
		<path fill="none" stroke="#000000" stroke-width="2" stroke-linecap="round" stroke-linejoin="round" stroke-miterlimit="10" d="
			M653.547,540.738c-3.02,24.041-8.496,47.104-24.678,65.875c7.315,2.709,13.535,1.35,22.443-5.691
			c0.245,0.744,0.495,1.486,0.747,2.229"/>
		<path fill="none" stroke="#000000" stroke-width="2" stroke-linecap="round" stroke-linejoin="round" stroke-miterlimit="10" d="
			M874.957,137.295c-2.229,4.953-4.842,9.778-6.564,14.9c-1.373,4.076-3.67,6.111-7.396,8.386
			c-9.355,5.712-17.93,12.705-27.476,17.909c-2.284,1.127-4.571,2.256-6.858,3.384"/>
		<path fill="none" stroke="#000000" stroke-width="2" stroke-linecap="round" stroke-linejoin="round" stroke-miterlimit="10" d="
			M667.664,295.552c2.732,3.461,5.465,6.922,8.506,10.774c-3.279,5.24-7.117,10.379-9.807,16.063
			c-1.527,3.227-2.441,7.773-1.354,10.947c1.383,4.045,5.318,2.227,8.642,0.967c2.801-1.061,5.979-1.121,10.403-1.859
			c0.763,0.421,2.902,1.604,5.308,2.93c5.241-4.25,10.389-2.847,15.809,1.414c6.574-7.494,13.078-2.271,19.906-0.313
			c4.817-4.932,10.477-6.131,17.303-2.664c1.031,2.006,2.299,4.47,3.566,6.932c-0.568-0.197-1.134-0.393-1.701-0.59
			c-2.494,4.698-5.797,9.148-7.332,14.143c-4.713,15.32-17.365,20.121-30.605,24.498c-3.696,1.22-8.446,0.433-10.409,5.176"/>
		<path fill="none" stroke="#000000" stroke-width="2" stroke-linecap="round" stroke-linejoin="round" stroke-miterlimit="10" d="
			M756.078,190.047c-1.734-1.98-3.629-5.767-5.172-5.629c-6.342,0.568-10.24-3.486-14.898-6.242
			c-4.078-2.414-7.779-1.895-11.951,0.604c-6.256,3.742-13.006,6.658-20.403,10.354c1.405,1.583,3.28,3.693,5.36,6.034
			c-0.938,2.08-2.168,4.809-3.807,8.441c2.121,0.403,4.074,0.774,6.029,1.146c0.258-0.807,0.514-1.614,0.771-2.422
			c4.4,9.956,15.041,6.546,22.084,11.716c4.912-2.762,12.234-1.783,15.08-10.774c-3.381-2.254-6.887-5.408-10.992-7.123
			c-5.168-2.154-10.813-3.207-16.307-4.502c-0.537-0.126-1.457,1.369-2.201,2.113"/>
		<path fill="none" stroke="#000000" stroke-width="2" stroke-linecap="round" stroke-linejoin="round" stroke-miterlimit="10" d="
			M727.102,282.178c12.957,0.412,23.562,6.399,34.461,13.491c-1.729,2.324-2.791,3.756-3.926,5.282
			c2.998,8.349,1.685,10.472-6.756,11.003c-1.512,0.096-2.975,0.934-4.461,1.43c-1.486,0.494-3.492,1.867-4.373,1.345
			c-6.002-3.554-11,0.94-17.695,1.95c-3.108-3.477-6.616-7.4-10.125-11.323c0.355-0.458,0.714-0.917,1.068-1.376
			c-3.02-0.502-6.037-1.002-8.93-1.482c-2.104-8.214-0.711-15.532,3.645-15.504c6.461,0.04,10.566-4.877,16.351-5.559"/>
		<path fill="none" stroke="#000000" stroke-width="2" stroke-linecap="round" stroke-linejoin="round" stroke-miterlimit="10" d="
			M860.098,216.052c-2.479,1.733-5.121,3.272-7.396,5.24c-5.416,4.685-10.826,8.235-18.549,9.304
			c-6.48,0.895-12.357,5.72-18.666,8.419c-4.281,1.831-8.908,3.503-11.763-0.437c-9.758-1.28-14.041,5.663-19.412,10.908"/>
		<path fill="none" stroke="#000000" stroke-width="2" stroke-linecap="round" stroke-linejoin="round" stroke-miterlimit="10" d="
			M683.266,114.262c-6.793,4.788-4.321,11.503-3.59,18.141c-2.041,1.02-4.104,2.052-6.68,3.34
			c4.184,10.37,5.539,21.673,13.984,29.785"/>
		<path fill="none" stroke="#000000" stroke-width="2" stroke-linecap="round" stroke-linejoin="round" stroke-miterlimit="10" d="
			M651.316,304.468c1.764,5.102-3.681,6.365-5.459,9.512c-8.013,14.156-15.943,28.264-20.545,43.982"/>
		<path fill="none" stroke="#000000" stroke-width="2" stroke-linecap="round" stroke-linejoin="round" stroke-miterlimit="10" d="
			M744.934,343.103c6.843,6.217,5.086,14.723,3.271,21.426c-2.479,9.151-1.357,17.307,0.041,26.189
			c0.711,4.508,0.4,10.625-5.439,14.219c-4.713,2.896-8.141,7.865-12.821,10.838c-7.089,4.502-14.543,8.633-22.308,11.764
			c-3.322,1.34-7.817-0.229-11.781-0.479"/>
		<path fill="none" stroke="#000000" stroke-width="2" stroke-linecap="round" stroke-linejoin="round" stroke-miterlimit="10" d="
			M744.191,375.794c-7.431,5.201-14.875,10.381-22.285,15.608c-7.609,5.364-15.265,10.57-25.269,9.652"/>
		<path fill="none" stroke="#000000" stroke-width="2" stroke-linecap="round" stroke-linejoin="round" stroke-miterlimit="10" d="
			M758.309,198.22c-10.08,6.836-11.08,17.833-1.918,24.755c-4.045,8.375-10.305,16.706-2.987,27.435
			c7.075-1.595,14.233-3.207,22.067-4.972c2.65,1.325,6.086,3.123,9.592,4.777c6.486,3.062,9.552,6.256,3.824,13.974
			c-3.256-0.846-6.447-1.676-10.555-2.743c0.43-0.858,0.975-1.95,1.521-3.044"/>
		<path fill="none" stroke="#000000" stroke-width="2" stroke-linecap="round" stroke-linejoin="round" stroke-miterlimit="10" d="
			M773.91,130.608c-2.256,0.904-4.514,1.81-7.086,2.84c-1.715,14.356,1.965,27.507,7.83,40.253"/>
		<path fill="none" stroke="#000000" stroke-width="2" stroke-linecap="round" stroke-linejoin="round" stroke-miterlimit="10" d="
			M737.504,455.294c-0.742,1.236-1.432,3.508-2.238,3.551c-6.159,0.318-8.555,5.268-11.873,9.084
			c-5.315,6.119-12.102,8.895-20.051,8.018c-2.336-0.258-4.473-2.326-6.703-3.563"/>
		<path fill="none" stroke="#000000" stroke-width="2" stroke-linecap="round" stroke-linejoin="round" stroke-miterlimit="10" d="
			M717.443,603.892c0.494,1.236,1.356,2.455,1.428,3.719c0.596,10.645,0.969,21.301,1.604,31.941
			c0.148,2.486,1.037,4.934,1.652,7.705c-1.914,0.43-3.67,0.82-6.17,1.379c0-14.521-0.227-28.895,0.1-43.256
			c0.154-6.701,1.39-13.377,2.127-20.063c0.025-0.246-0.071-0.68,0.015-0.715c0.723-0.299,1.475-0.523,2.219-0.771"/>
		<path fill="none" stroke="#000000" stroke-width="2" stroke-linecap="round" stroke-linejoin="round" stroke-miterlimit="10" d="
			M677.322,506.56c0,8.668,0.172,17.342-0.066,26.004c-0.141,5.209-0.926,10.402-1.42,15.604"/>
		<path fill="none" stroke="#000000" stroke-width="2" stroke-linecap="round" stroke-linejoin="round" stroke-miterlimit="10" d="
			M698.125,143.982c-2.377,1.78-4.758,3.561-6.01,4.499c1.461,7.205,2.668,13.155,4.074,20.088c-3.339-0.62-5.541-1.028-7.607-1.411
			c-4.883,3.499-9.758,6.992-15.227,10.91c2.282,1.602,3.862,2.711,4.881,3.424c-3.349,9.396-6.638,18.626-9.906,27.803
			c1.557,1.809,3.045,3.539,4.533,5.271"/>
		<path fill="none" stroke="#000000" stroke-width="2" stroke-linecap="round" stroke-linejoin="round" stroke-miterlimit="10" d="
			M817.004,169.243c-3.492,4.681-0.922,8.646,1.064,12.484c2.899,0.624,5.371,1.155,8.246,1.773
			c1.205,2.021,2.573,4.318,3.608,6.058c-1.129,7.214-9.641,12.144-4.748,20.549"/>
		<path fill="none" stroke="#000000" stroke-width="2" stroke-linecap="round" stroke-linejoin="round" stroke-miterlimit="10" d="
			M732.303,488.73c-7.678,6.438-15.02,13.354-23.174,19.117c-4.145,2.936-9.779,4.041-13.975-1.287"/>
		<path fill="none" stroke="#000000" stroke-width="2" stroke-linecap="round" stroke-linejoin="round" stroke-miterlimit="10" d="
			M747.162,414.43c-0.494,1.237-1.547,2.548-1.398,3.702c1.328,10.371-3.418,19.77-4.688,29.713
			c-0.238,1.861-1.986,4.49-3.627,5.061c-12.049,4.178-24.472,5.408-37.078,3.037c-1.613-0.303-2.988-1.887-4.475-2.877
			c1.237-0.742,2.477-1.486,3.715-2.23"/>
		<path fill="none" stroke="#000000" stroke-width="2" stroke-linecap="round" stroke-linejoin="round" stroke-miterlimit="10" d="
			M677.322,436.72c-1.81,13.146-3.041,26.428-8.916,38.635"/>
		<path fill="none" stroke="#000000" stroke-width="2" stroke-linecap="round" stroke-linejoin="round" stroke-miterlimit="10" d="
			M671.379,592.748c-3.467,8.172-6.436,16.611-10.594,24.416c-2.412,4.525-6.748,8.021-10.207,11.99
			c-1.502,1.723-2.977,3.467-4.461,5.201"/>
		<path fill="none" stroke="#000000" stroke-width="2" stroke-linecap="round" stroke-linejoin="round" stroke-miterlimit="10" d="
			M724.873,566c2.477,4.705,4.525,9.707,7.523,14.053c5.534,8.023,10.604,16.725,20.711,20.125"/>
		<path fill="none" stroke="#000000" stroke-width="2" stroke-linecap="round" stroke-linejoin="round" stroke-miterlimit="10" d="
			M733.789,511.017c-1.98,1.982-3.619,4.779-6.01,5.783c-6.008,2.525-10.974,5.813-14.935,11.203
			c-3.278,4.465-7.785,8.027-11.748,11.99"/>
		<path fill="none" stroke="#000000" stroke-width="2" stroke-linecap="round" stroke-linejoin="round" stroke-miterlimit="10" d="
			M614.168,328.244c8.006,3.733,8.797,3.528,17.088-4.459c-6.635-2.535-11.766-1.418-17.088,3.715"/>
		<path fill="none" stroke="#000000" stroke-width="2" stroke-linecap="round" stroke-linejoin="round" stroke-miterlimit="10" d="
			M623.826,255.431c-3.619,1.943-7.238,3.889-11.641,6.254c2.434,4.121,4.356,7.376,5.961,10.092c5.686,0,10.168,0,15.497,0
			c-4.387,10.314-5.528,19.561,4.273,27.345c0.283-0.056,1.998-0.397,3.66-0.729c1.563,2.608,3.053,5.085,4.539,7.562"/>
		<path fill="none" stroke="#000000" stroke-width="2" stroke-linecap="round" stroke-linejoin="round" stroke-miterlimit="10" d="
			M842.266,121.692c-2.229,1.486-4.459,2.972-6.688,4.458c-8.609,5.211-13.43,14.797-20.803,21.547"/>
		<path fill="none" stroke="#000000" stroke-width="2" stroke-linecap="round" stroke-linejoin="round" stroke-miterlimit="10" d="
			M702.584,280.692c-3.221,1.485-6.361,4.037-9.672,4.277c-16.299,1.178-28.199,10.625-40.109,20.24"/>
		<path fill="none" stroke="#000000" stroke-width="2" stroke-linecap="round" stroke-linejoin="round" stroke-miterlimit="10" d="
			M764.994,311.897c-2.146,3.778-5.137,6.463-9.66,6.658c-8.168,0.35-16.344,0.522-24.518,0.771"/>
		<path fill="none" stroke="#000000" stroke-width="2" stroke-linecap="round" stroke-linejoin="round" stroke-miterlimit="10" d="
			M599.311,378.022c9.485,1.784,15.324-2.594,14.806-12.112c-5.218,4.006-10.011,7.688-14.806,11.37"/>
		<path fill="none" stroke="#000000" stroke-width="2" stroke-linecap="round" stroke-linejoin="round" stroke-miterlimit="10" d="
			M759.793,73.398c-5.211,8.155-6.65,17.485-8.086,26.761c-0.424,2.731-1.027,6.109,2.885,7.417"/>
		<path fill="none" stroke="#000000" stroke-width="2" stroke-linecap="round" stroke-linejoin="round" stroke-miterlimit="10" d="
			M677.322,280.692c5.656-7.063,5.656-7.063,10.686-5.878c1.553-1.927,3.215-3.987,4.533-5.624c3.35,1.118,5.578,1.864,9.217,3.08
			c1.854-2.779,3.912-5.865,6.226-9.33c-2.88-3.274-5.312-6.036-7.771-8.83c-3.178,1.326-5.639,2.352-8.689,3.624
			c-3.057-2.055-6.241-6.159-11.885-2.181c-1.729-2.206-3.36-4.293-5.24-6.693c-2.243,1.221-4.188,2.279-6.034,3.281
			c-2.787-1.434-5.742-2.955-8.392-4.316c-13.985,5.121-17.646,13.002-10.27,20.842c-1.246,2.292-2.465,4.531-3.353,6.162
			c3.968,1.995,7.812,3.93,11.652,5.863"/>
		<path fill="none" stroke="#000000" stroke-width="2" stroke-linecap="round" stroke-linejoin="round" stroke-miterlimit="10" d="
			M709.27,592.748c1.728,11.309,0.945,22.451-1.774,34.02c-1.789-0.893-2.979-1.482-3.228-1.607
			c0.447-7.119,0.867-13.82,1.287-20.523"/>
		<path fill="none" stroke="#000000" stroke-width="2" stroke-linecap="round" stroke-linejoin="round" stroke-miterlimit="10" d="
			M665.434,490.214c-2.477,7.184-4.756,14.439-7.471,21.531c-5.609,14.656-16.955,24.771-29.256,34.725
			c2.832-11.32,5.662-22.645,8.494-33.967"/>
		<path fill="none" stroke="#000000" stroke-width="2" stroke-linecap="round" stroke-linejoin="round" stroke-miterlimit="10" d="
			M767.967,172.215c-8.797-8.174-17.99-15.372-31.951-12.925c-0.254,2.19-0.483,4.175-0.896,7.725c-2.32,0-5.582,0.329-8.752-0.073
			c-5.715-0.723-11.021-1.738-16.494,2.1c-3.832,2.686-8.978,3.313-13.234-0.541"/>
		<path fill="none" stroke="#000000" stroke-width="2" stroke-linecap="round" stroke-linejoin="round" stroke-miterlimit="10" d="
			M638.688,149.926c6.193,5.777,5.595,7.743,2.099,17.45c-4.742-3.28-5.502-7.892-5.07-12.992"/>
		<path fill="none" stroke="#000000" stroke-width="2" stroke-linecap="round" stroke-linejoin="round" stroke-miterlimit="10" d="
			M727.846,585.316c5.269,10.852,10.537,21.699,16.199,33.359c0.146-0.107-0.969,0.729-2.084,1.563"/>
		<path fill="none" stroke="#000000" stroke-width="2" stroke-linecap="round" stroke-linejoin="round" stroke-miterlimit="10" d="
			M640.172,146.211c4.687,0.311,9.371,0.62,16.277,1.077c8.246,5.984,18.227,13.382,20.129,27.157"/>
		<path fill="none" stroke="#000000" stroke-width="2" stroke-linecap="round" stroke-linejoin="round" stroke-miterlimit="10" d="
			M796.199,126.15c-10.207,6.979-13.646,17.254-14.906,30.116c2.201-1.646,3.354-2.506,4.506-3.368"/>
		<path fill="none" stroke="#000000" stroke-width="2" stroke-linecap="round" stroke-linejoin="round" stroke-miterlimit="10" d="
			M681.779,232.397c1.733,1.733,3.467,3.467,6.143,6.142c1.051-2.891,3.31-6.561,2.527-7.396c-3.029-3.245-7.021-5.59-11.289-8.734
			c-1.672,3.902-2.631,6.143-4.137,9.66c2.396,0.426,4.204,0.75,6.014,1.072"/>
		<path fill="none" stroke="#000000" stroke-width="2" stroke-linecap="round" stroke-linejoin="round" stroke-miterlimit="10" d="
			M693.668,407.744c-8.711,3.354-14.859,14.113-14.859,26.004"/>
		<path fill="none" stroke="#000000" stroke-width="2" stroke-linecap="round" stroke-linejoin="round" stroke-miterlimit="10" d="
			M792.484,343.846c-0.494-1.237-0.709-2.718-1.529-3.677c-6.607-7.746-13.33-15.394-20.018-23.07"/>
		<path fill="none" stroke="#000000" stroke-width="2" stroke-linecap="round" stroke-linejoin="round" stroke-miterlimit="10" d="
			M803.631,261.374c-7.69,3.807-13.1,9.072-11.699,19.318c2.271,0,4.754,0,6.787,0c0.246,5.448-5.586,10.152,0.388,15.459
			c2.713-1.841,5.1-3.461,7.811-5.302c1.596,0.944,3.314,1.965,5.076,3.007c-1.763,4.68-1.402,8.462,4.715,11.185
			c1.027-1.582,2.148-3.308,3.271-5.032"/>
		<path fill="none" stroke="#000000" stroke-width="2" stroke-linecap="round" stroke-linejoin="round" stroke-miterlimit="10" d="
			M800.658,360.935c-3.715,2.973-7.519,5.846-11.076,8.992c-0.787,0.695-0.711,2.363-1.262,4.449
			c5.688-0.283,9.164-2.502,10.852-7.498"/>
		<path fill="none" stroke="#000000" stroke-width="2" stroke-linecap="round" stroke-linejoin="round" stroke-miterlimit="10" d="
			M809.574,390.653c4.033-9.647,0.623-18.379-3.81-26.696c-3.545-6.656-7.92-12.873-11.953-19.324
			c-10.057,2.8-12.524,5.422-11.729,12.588c9.438-1.961,10.336-3.082,8.916-11.145"/>
		<path fill="none" stroke="#000000" stroke-width="2" stroke-linecap="round" stroke-linejoin="round" stroke-miterlimit="10" d="
			M725.615,297.038c2.563-5.172,5.854-2.737,8.887-0.699c2.021,1.359,3.754,3.145,6.223,5.26c-2.498,3.4-4.696,6.393-6.907,9.4
			c-5.314-2.951-9.048-0.975-12.658,1.641"/>
		<path fill="none" stroke="#000000" stroke-width="2" stroke-linecap="round" stroke-linejoin="round" stroke-miterlimit="10" d="
			M761.279,71.912c1.237,2.972,4.078,6.369,3.424,8.839c-2.201,8.295,2.229,18.798-7.803,24.728
			c-1.312,0.773-1.564,3.335-2.31,5.069"/>
		<path fill="none" stroke="#000000" stroke-width="2" stroke-linecap="round" stroke-linejoin="round" stroke-miterlimit="10" d="
			M625.313,136.552c-2.692,5.025,2.322,7.481,3.979,11.724c-7.203,6.24-12.445,13.985-13.156,24.07
			c-2.67,0.444-4.989,0.83-8.126,1.352c1.685,2.191,2.65,3.448,4.287,5.58c0.821-2.45,1.347-4.013,1.872-5.577"/>
		<path fill="none" stroke="#000000" stroke-width="2" stroke-linecap="round" stroke-linejoin="round" stroke-miterlimit="10" d="
			M767.223,368.365c1.238,1.485,2.478,2.973,3.832,4.598c-0.76,1.879-1.268,4.024-2.399,5.768
			c-2.935,4.516-2.974,8.607,0.748,12.714c0.84,0.927,1.041,2.431,1.534,3.669"/>
		<path fill="none" stroke="#000000" stroke-width="2" stroke-linecap="round" stroke-linejoin="round" stroke-miterlimit="10" d="
			M724.131,593.49c5.449,8.422,10.896,16.84,16.346,25.262"/>
		<path fill="none" stroke="#000000" stroke-width="2" stroke-linecap="round" stroke-linejoin="round" stroke-miterlimit="10" d="
			M600.797,224.225c-9.938-3.42-18.758-1.346-25.261,5.943c9.052,6.809,22.319,1.632,30.46-11.887"/>
		<path fill="none" stroke="#000000" stroke-width="2" stroke-linecap="round" stroke-linejoin="round" stroke-miterlimit="10" d="
			M743.447,337.901c-8.668,2.726-17.336,5.449-26.004,8.175"/>
		<path fill="none" stroke="#000000" stroke-width="2" stroke-linecap="round" stroke-linejoin="round" stroke-miterlimit="10" d="
			M776.883,152.897c4.31,7.751,0.385,14.947-1.455,22.299c-0.231,0.932-0.031,1.972-0.031,2.963"/>
		<path fill="none" stroke="#000000" stroke-width="2" stroke-linecap="round" stroke-linejoin="round" stroke-miterlimit="10" d="
			M808.088,123.921c0.494,3.715,0.59,7.539,1.566,11.123c2.377,8.725-2.517,15.306-6.056,22.296
			c-1.551,3.064-3.436,5.959-5.17,8.932"/>
		<path fill="none" stroke="#000000" stroke-width="2" stroke-linecap="round" stroke-linejoin="round" stroke-miterlimit="10" d="
			M866.041,138.038c-1.486,0.495-2.982,1.448-4.457,1.415c-15.008-0.341-24.691,8.959-34.17,18.655
			c-2.824,2.891-9.201,1.895-8.924,8.164"/>
		<path fill="none" stroke="#000000" stroke-width="2" stroke-linecap="round" stroke-linejoin="round" stroke-miterlimit="10" d="
			M591.137,245.028c-3.219,8.173-6.438,16.346-9.658,24.519"/>
		<path fill="none" stroke="#000000" stroke-width="2" stroke-linecap="round" stroke-linejoin="round" stroke-miterlimit="10" d="
			M629.771,291.094c-1.486-0.249-3.648,0.039-4.343-0.836c-2.998-3.777-5.565-2.899-8.379-0.577
			c-4.827-0.334-9.786-0.677-16.014-1.107c-0.642,1.503-1.637,3.84-3.137,7.361c-3.39-0.564-7.306-1.217-11.222-1.869"/>
		<path fill="none" stroke="#000000" stroke-width="2" stroke-linecap="round" stroke-linejoin="round" stroke-miterlimit="10" d="
			M606.739,210.107c-7.249-6.196-15.987-5.03-22.555,3.309c3.847,4.596,8.695,3.824,13.64,2.636"/>
		<path fill="none" stroke="#000000" stroke-width="2" stroke-linecap="round" stroke-linejoin="round" stroke-miterlimit="10" d="
			M658.748,222.738c2,0.4,4.002,0.801,6.953,1.391c-0.467,2.752-0.889,5.238-1.404,8.277c-3.498-1.851-5.836-3.087-9.783-5.175
			c0.957-1.438,2.226-3.337,3.49-5.235"/>
		<path fill="none" stroke="#000000" stroke-width="2" stroke-linecap="round" stroke-linejoin="round" stroke-miterlimit="10" d="
			M651.316,317.099c-2.519,6.037,0.885,8.693,6.42,10.79c1.371-5.646-1.072-8.757-5.677-10.79"/>
		<path fill="none" stroke="#000000" stroke-width="2" stroke-linecap="round" stroke-linejoin="round" stroke-miterlimit="10" d="
			M622.34,365.393c-1.236,7.925-2.477,15.851-3.715,23.774"/>
		<path fill="none" stroke="#000000" stroke-width="2" stroke-linecap="round" stroke-linejoin="round" stroke-miterlimit="10" d="
			M876.443,132.094c0.614-1.94,1.233-3.879,2.483-7.809c-4.383,0.583-7.557,1.006-10.729,1.428c-0.474,0.643-0.947,1.287-1.422,1.93
			c-0.74-1.489-1.48-2.977-2.013-4.046c-4.428,0.457-8.625,0.893-12.991,1.344c-0.341-1.021-0.839-2.506-1.334-3.992"/>
		<path fill="none" stroke="#000000" stroke-width="2" stroke-linecap="round" stroke-linejoin="round" stroke-miterlimit="10" d="
			M915.078,147.697c-3.545-1.058-3.545-1.058-2.973-4.458c7.141,5.633,6.291,11.572-5.199,36.407
			c6.67,3.159,6.67,3.159,11.145-2.972"/>
		<path fill="none" stroke="#000000" stroke-width="2" stroke-linecap="round" stroke-linejoin="round" stroke-miterlimit="10" d="
			M799.172,314.869c-1.75,1.75-3.502,3.498-5.248,5.24c-1.977-1.469-3.131-2.324-5.154-3.826c0,2.07-0.352,3.436,0.06,4.508
			c2.539,6.623,4.725,13.648,13.315,14.883"/>
		<path fill="none" stroke="#000000" stroke-width="2" stroke-linecap="round" stroke-linejoin="round" stroke-miterlimit="10" d="
			M885.359,175.188c-4.832,1.408-7.453,3.982-7.728,9.645c-0.149,3.079-3.324,6.014-5.731,8.62
			c-2.138,9.615-6.351,13.828-16.263,15.17"/>
		<path fill="none" stroke="#000000" stroke-width="2" stroke-linecap="round" stroke-linejoin="round" stroke-miterlimit="10" d="
			M738.99,453.808c0.494,3.467,1.541,6.963,1.365,10.396c-0.318,6.211-1.365,12.389-2.109,18.58"/>
		<path fill="none" stroke="#000000" stroke-width="2" stroke-linecap="round" stroke-linejoin="round" stroke-miterlimit="10" d="
			M870.498,286.636c-5.516-0.92-7.361,0.527-10.4,8.173c-8.422,2.726-16.719,5.996-25.313,7.948
			c-4.496,1.021-8.957,5.054-14.066,1.711"/>
		<path fill="none" stroke="#000000" stroke-width="2" stroke-linecap="round" stroke-linejoin="round" stroke-miterlimit="10" d="
			M701.098,94.944c-1.188-2.378-2.373-4.757-3.561-7.135c-0.863-0.071-1.727-0.144-2.59-0.214
			c-2.351,6.347-4.699,12.694-7.229,19.531c-0.231-0.038-1.223-0.2-2.967-0.485c0,1.673,0,3.161,0,4.65"/>
		<path fill="none" stroke="#000000" stroke-width="2" stroke-linecap="round" stroke-linejoin="round" stroke-miterlimit="10" d="
			M818.49,101.631c-1.674-0.56-3.349-1.12-5.021-1.679c5.084-1.411,7.523,2.238,6.506,7.623c-0.981,5.203-1.979,10.402-2.971,15.603
			"/>
		<path fill="none" stroke="#000000" stroke-width="2" stroke-linecap="round" stroke-linejoin="round" stroke-miterlimit="10" d="
			M628.285,138.038c0.742,3.22,1.481,6.44,2.258,9.651c0.014,0.057,0.465,0.007,0.986,0.37c6.396,0.274,9.557-4.663,11.356-9.377
			c1.92-5.021,3.236-11.172-3.389-14.848c-5.063,6.526-5.063,11.583-0.068,19.405"/>
		<path fill="none" stroke="#000000" stroke-width="2" stroke-linecap="round" stroke-linejoin="round" stroke-miterlimit="10" d="
			M674.35,568.97c-0.989,6.938-1.979,13.869-2.971,20.805"/>
		<path fill="none" stroke="#000000" stroke-width="2" stroke-linecap="round" stroke-linejoin="round" stroke-miterlimit="10" d="
			M681.037,314.126c-2.59,2.013-5.182,4.024-8.66,6.727c5.627,3.063,9.08,2.629,12.375-0.039"/>
		<path fill="none" stroke="#000000" stroke-width="2" stroke-linecap="round" stroke-linejoin="round" stroke-miterlimit="10" d="
			M793.229,327.5c4.718-6.705,13.029-5.615,19.271-9.047c2.963,8.608-0.836,13.577-9.613,12.76c-2.479-0.23-4.953-0.492-7.43-0.74"
			/>
		<path fill="none" stroke="#000000" stroke-width="2" stroke-linecap="round" stroke-linejoin="round" stroke-miterlimit="10" d="
			M632,198.22c-1.021-6.118-2.043-12.235-3.064-18.354c1.125-0.217,2.25-0.435,3.375-0.65c5.854,5.143,3.181,12.332,2.66,19.005"/>
		<path fill="none" stroke="#000000" stroke-width="2" stroke-linecap="round" stroke-linejoin="round" stroke-miterlimit="10" d="
			M861.584,181.131c1.305,5.553,0.627,6.299-7.432,8.174c-4.533,4.295-7.269,11.5-14.963,9.661c-1.58,2.426-2.576,5.937-4.419,6.456
			c-10.852,3.067-13.991,13.916-21.366,20.42c-3.638,3.208-6.06,7.793-9.031,11.756"/>
		<path fill="none" stroke="#000000" stroke-width="2" stroke-linecap="round" stroke-linejoin="round" stroke-miterlimit="10" d="
			M649.088,136.552c0-3.727,0-7.453,0-12.176c10.676,7.412,10.875,8.492,5.201,21.092"/>
		<path fill="none" stroke="#000000" stroke-width="2" stroke-linecap="round" stroke-linejoin="round" stroke-miterlimit="10" d="
			M705.555,561.541c1.644,0.588,3.281,1.178,4.924,1.766c8.611,0.582,17.332,0.135,23.521,9.236
			c2.135,3.137,6.725,4.602,10.191,6.83"/>
		<path fill="none" stroke="#000000" stroke-width="2" stroke-linecap="round" stroke-linejoin="round" stroke-miterlimit="10" d="
			M652.061,608.349c-0.743,6.688-1.485,13.375-2.229,20.063"/>
		<path fill="none" stroke="#000000" stroke-width="2" stroke-linecap="round" stroke-linejoin="round" stroke-miterlimit="10" d="
			M744.934,251.716c4.726,6.686,5.226,13.373,0,20.061"/>
		<path fill="none" stroke="#000000" stroke-width="2" stroke-linecap="round" stroke-linejoin="round" stroke-miterlimit="10" d="
			M628.285,338.645c-5.084,6.146-11.303,9.009-20.606,6.578c4.767-5.298,9.757-7.954,16.147-8.063"/>
		<path fill="none" stroke="#000000" stroke-width="2" stroke-linecap="round" stroke-linejoin="round" stroke-miterlimit="10" d="
			M905.42,220.51c-9.938-4.045-13.248-5.613-19.645,1.086c2.903,1.43,5.688,2.801,8.666,4.266c2.336-0.527,4.801-1.081,7.264-1.637"
			/>
		<path fill="none" stroke="#000000" stroke-width="2" stroke-linecap="round" stroke-linejoin="round" stroke-miterlimit="10" d="
			M657.262,248c-1.883-5.928-6.805-6.506-11.889-6.666c-3.459-0.109-6.924-0.021-11.43-0.021c-2.377,3.07-5.504,7.107-8.631,11.145"
			/>
		<path fill="none" stroke="#000000" stroke-width="2" stroke-linecap="round" stroke-linejoin="round" stroke-miterlimit="10" d="
			M860.098,214.566c-2.289-2.672-4.575-5.345-7.635-8.917c-5.012,0-10.947,0-16.885,0"/>
		<path fill="none" stroke="#000000" stroke-width="2" stroke-linecap="round" stroke-linejoin="round" stroke-miterlimit="10" d="
			M702.584,580.859c-0.496,6.438-0.992,12.879-1.486,19.316"/>
		<path fill="none" stroke="#000000" stroke-width="2" stroke-linecap="round" stroke-linejoin="round" stroke-miterlimit="10" d="
			M643.145,201.192c0.962-6.002-2.666-12.959,3.742-18.491c7.431,6.852,2.154,13.042-0.026,19.233"/>
		<path fill="none" stroke="#000000" stroke-width="2" stroke-linecap="round" stroke-linejoin="round" stroke-miterlimit="10" d="
			M771.682,272.519c-0.248-0.99-1.045-2.439-0.657-2.9c4.014-4.818,1.563-9.105-0.962-13.352
			c-7.338,3.201-10.856,8.727-9.524,16.995"/>
		<path fill="none" stroke="#000000" stroke-width="2" stroke-linecap="round" stroke-linejoin="round" stroke-miterlimit="10" d="
			M783.568,90.487c0.858-1.096,1.717-2.191,3.162-4.037c1.065,2.031,1.735,3.31,3.075,5.862c-3.873-0.74-6.549-1.25-9.604-1.834
			c-5.104,2.378-10.527,4.909-15.951,7.438"/>
		<path fill="none" stroke="#000000" stroke-width="2" stroke-linecap="round" stroke-linejoin="round" stroke-miterlimit="10" d="
			M696.639,615.037c-3.936,5.961-4.51,14.164-11.887,17.832"/>
		<path fill="none" stroke="#000000" stroke-width="2" stroke-linecap="round" stroke-linejoin="round" stroke-miterlimit="10" d="
			M698.125,580.859c-2.742,6.852-6.885,12.559-13.373,16.346"/>
		<path fill="none" stroke="#000000" stroke-width="2" stroke-linecap="round" stroke-linejoin="round" stroke-miterlimit="10" d="
			M723.387,238.342c4.754,4.116,9.953,7.831,7.64,15.665c-0.457,1.553,1.772,3.9,2.764,5.881"/>
		<path fill="none" stroke="#000000" stroke-width="2" stroke-linecap="round" stroke-linejoin="round" stroke-miterlimit="10" d="
			M755.336,113.52c6.943,4.62,11.172,4.092,17.832-2.23c-7.352-4.68-14.494-3.251-23.73,2.577
			c-3.206,6.494-7.569,15.333-11.934,24.172"/>
		<path fill="none" stroke="#000000" stroke-width="2" stroke-linecap="round" stroke-linejoin="round" stroke-miterlimit="10" d="
			M661.719,189.305c-0.99,0-1.979,0-3.916,0c2.047-1.438,3.463-2.433,6.238-4.382c-6.021-2.786-5.49-11.873-14.209-10.479"/>
		<path fill="none" stroke="#000000" stroke-width="2" stroke-linecap="round" stroke-linejoin="round" stroke-miterlimit="10" d="
			M741.961,271.032c2.441,1.31,4.883,2.619,7.576,4.063c5.475-1.737,11.156-3.811,15.791,1.469
			c6.729-3.545,12.879-7.693,20.82-4.836c-1.812,8.102-6.478,11.567-13.726,11.936"/>
		<path fill="none" stroke="#000000" stroke-width="2" stroke-linecap="round" stroke-linejoin="round" stroke-miterlimit="10" d="
			M620.855,356.477c-5.404,6.974-11.604,4.399-17.83,1.485"/>
		<path fill="none" stroke="#000000" stroke-width="2" stroke-linecap="round" stroke-linejoin="round" stroke-miterlimit="10" d="
			M718.186,566c0.248,4.705,0.716,9.416,0.599,14.113c-0.031,1.262-1.834,2.479-2.826,3.719"/>
		<path fill="none" stroke="#000000" stroke-width="2" stroke-linecap="round" stroke-linejoin="round" stroke-miterlimit="10" d="
			M578.506,268.062c-2.946,4.761-2.796,5.179,4.355,7.555c-1.205-2.52-2.408-5.037-3.611-7.555"/>
		<path fill="none" stroke="#000000" stroke-width="2" stroke-linecap="round" stroke-linejoin="round" stroke-miterlimit="10" d="
			M642.402,345.332c-1.189-0.59-2.377-1.182-3.625-1.799c-1.972,6.721,0.397,10.077,8.823,12.943"/>
		<path fill="none" stroke="#000000" stroke-width="2" stroke-linecap="round" stroke-linejoin="round" stroke-miterlimit="10" d="
			M698.125,343.103c4.771,4.725,10.824,2.391,16.346,2.973"/>
		<path fill="none" stroke="#000000" stroke-width="2" stroke-linecap="round" stroke-linejoin="round" stroke-miterlimit="10" d="
			M802.145,102.375c-3.512,4.674-7.022,9.35-10.305,13.716c-1.643,0.412-3.1,0.778-4.555,1.144"/>
		<path fill="none" stroke="#000000" stroke-width="2" stroke-linecap="round" stroke-linejoin="round" stroke-miterlimit="10" d="
			M736.018,268.062c-1.733,0-3.559,0.357-5.186-0.059c-11.07-2.826-16.818-0.549-22.332,8.958c-0.789,1.356-1.953,2.493-2.945,3.731
			"/>
		<path fill="none" stroke="#000000" stroke-width="2" stroke-linecap="round" stroke-linejoin="round" stroke-miterlimit="10" d="
			M896.504,199.706c-3.715,4.706-3.488,12.522-11.145,14.116"/>
		<path fill="none" stroke="#000000" stroke-width="2" stroke-linecap="round" stroke-linejoin="round" stroke-miterlimit="10" d="
			M732.303,625.439c1.238,4.209,2.674,8.375,3.631,12.648c0.48,2.143,0.084,4.479,0.084,7.918c-8.08-4.502-3.032-11.83-6.686-16.109
			"/>
		<path fill="none" stroke="#000000" stroke-width="2" stroke-linecap="round" stroke-linejoin="round" stroke-miterlimit="10" d="
			M735.275,135.066c0.494,5.449,0.989,10.897,1.485,16.346"/>
		<path fill="none" stroke="#000000" stroke-width="2" stroke-linecap="round" stroke-linejoin="round" stroke-miterlimit="10" d="
			M813.289,149.183c-4.836,4.345-3.631,10.128-3.715,15.603"/>
		<path fill="none" stroke="#000000" stroke-width="2" stroke-linecap="round" stroke-linejoin="round" stroke-miterlimit="10" d="
			M632.742,313.384c-0.646-1.287-1.289-2.575-1.115-2.229c-5.57,0-10.029,0.022-14.486-0.006c-5.089-0.034-9.517,0.987-11.145,6.692
			"/>
		<path fill="none" stroke="#000000" stroke-width="2" stroke-linecap="round" stroke-linejoin="round" stroke-miterlimit="10" d="
			M726.359,146.954c-1.98,5.449-3.963,10.897-5.943,16.346"/>
		<path fill="none" stroke="#000000" stroke-width="2" stroke-linecap="round" stroke-linejoin="round" stroke-miterlimit="10" d="
			M721.9,233.141c2.475,4.639-1.681,7.529-3.023,11.124c-1.238,3.313-2.92,6.459-4.406,9.68"/>
		<path fill="none" stroke="#000000" stroke-width="2" stroke-linecap="round" stroke-linejoin="round" stroke-miterlimit="10" d="
			M646.859,284.407c-4.306,8.027-4.8,7.621-14.117,5.2"/>
		<path fill="none" stroke="#000000" stroke-width="2" stroke-linecap="round" stroke-linejoin="round" stroke-miterlimit="10" d="
			M794.715,297.038c-3.723,0.145-4.635-0.311-9.531-5.054c-1.584,1.23-3.264,2.534-5.149,3.997c-2.631-0.34-5.855-0.756-9.301-1.201
			c-1.451,3.564-5.941,6.347-2.767,11.172"/>
		<path fill="none" stroke="#000000" stroke-width="2" stroke-linecap="round" stroke-linejoin="round" stroke-miterlimit="10" d="
			M626.057,378.767c4.422,4.011,7.466,8.506,5.261,15.295c-5.316-2.855-7.345-6.691-5.261-12.322"/>
		<path fill="none" stroke="#000000" stroke-width="2" stroke-linecap="round" stroke-linejoin="round" stroke-miterlimit="10" d="
			M659.49,281.435c1.084,1.364,2.168,2.729,2.944,3.707c4.453-1.109,8.185-2.037,11.914-2.964"/>
		<path fill="none" stroke="#000000" stroke-width="2" stroke-linecap="round" stroke-linejoin="round" stroke-miterlimit="10" d="
			M905.42,181.874c-2.295,3.929-4.588,7.855-7.662,13.121c7.176-1.434,13.242-2.646,20.996-4.194
			c-2.961,5.209-4.932,8.682-6.848,12.052c-5.043,0.982-9.677,2.678-12.433-3.146"/>
		<path fill="none" stroke="#000000" stroke-width="2" stroke-linecap="round" stroke-linejoin="round" stroke-miterlimit="10" d="
			M744.191,246.515c-1.238,2.229-2.273,4.607-3.771,6.647c-1.754,2.396-3.908,4.497-5.891,6.726"/>
		<path fill="none" stroke="#000000" stroke-width="2" stroke-linecap="round" stroke-linejoin="round" stroke-miterlimit="10" d="
			M724.131,194.505c-1.209,0.529-2.416,1.059-3.623,1.588c0.355,0.686,0.713,1.371,1.07,2.058c2.004,0.946,4.008,1.892,6.887,3.252
			c0.666-2.242,1.137-3.827,1.609-5.411"/>
		<path fill="none" stroke="#000000" stroke-width="2" stroke-linecap="round" stroke-linejoin="round" stroke-miterlimit="10" d="
			M836.322,164.786c-4.953,0.495-9.908,0.991-14.861,1.486"/>
		<path fill="none" stroke="#000000" stroke-width="2" stroke-linecap="round" stroke-linejoin="round" stroke-miterlimit="10" d="
			M721.9,601.662c0.991,4.953,1.981,9.908,2.973,14.861"/>
		<path fill="none" stroke="#000000" stroke-width="2" stroke-linecap="round" stroke-linejoin="round" stroke-miterlimit="10" d="
			M620.855,195.991c-2.261-5.913-6.404-8.269-12.631-6.687"/>
		<path fill="none" stroke="#000000" stroke-width="2" stroke-linecap="round" stroke-linejoin="round" stroke-miterlimit="10" d="
			M619.369,352.019c-4.707,1.734-9.409,3.467-14.115,5.201"/>
		<path fill="none" stroke="#000000" stroke-width="2" stroke-linecap="round" stroke-linejoin="round" stroke-miterlimit="10" d="
			M672.863,354.99c-1.027-0.688-2.058-1.373-3.736-2.494c-1.658,1.508-3.605,3.274-6.385,5.803c2.164,2.143,3.914,3.875,5.664,5.607
			"/>
		<path fill="none" stroke="#000000" stroke-width="2" stroke-linecap="round" stroke-linejoin="round" stroke-miterlimit="10" d="
			M651.316,147.697c-0.609,2.259-1.22,4.521-1.996,7.401c0.506,1.517,1.252,3.744,1.996,5.973"/>
		<path fill="none" stroke="#000000" stroke-width="2" stroke-linecap="round" stroke-linejoin="round" stroke-miterlimit="10" d="
			M744.934,125.407c2.595,1.498,5.188,2.997,7.644,4.413c1.567-1.645,2.535-2.657,3.502-3.67"/>
		<path fill="none" stroke="#000000" stroke-width="2" stroke-linecap="round" stroke-linejoin="round" stroke-miterlimit="10" d="
			M652.803,152.155c4.773,4.506,2.004,8.567-0.742,12.631"/>
		<path fill="none" stroke="#000000" stroke-width="2" stroke-linecap="round" stroke-linejoin="round" stroke-miterlimit="10" d="
			M610.454,193.019c2.677,3.902,5.355,7.805,7.732,11.27c6.378-0.894,11.562-1.84,16.789-2.31
			c12.058-1.085,21.916,3.71,30.486,11.813c1.279,1.209,2.943,2.012,4.43,3.003"/>
		<path fill="none" stroke="#000000" stroke-width="2" stroke-linecap="round" stroke-linejoin="round" stroke-miterlimit="10" d="
			M719.672,569.714c2.229,4.209,4.459,8.42,6.688,12.631"/>
		<path fill="none" stroke="#000000" stroke-width="2" stroke-linecap="round" stroke-linejoin="round" stroke-miterlimit="10" d="
			M677.322,552.625c-0.496,4.459-0.992,8.916-1.486,13.375"/>
		<path fill="none" stroke="#000000" stroke-width="2" stroke-linecap="round" stroke-linejoin="round" stroke-miterlimit="10" d="
			M759.051,346.076c6.402-5.889,6.402-7.832,0-14.117"/>
		<path fill="none" stroke="#000000" stroke-width="2" stroke-linecap="round" stroke-linejoin="round" stroke-miterlimit="10" d="
			M757.564,331.214c-4.457,0.744-8.916,1.486-13.373,2.229"/>
		<path fill="none" stroke="#000000" stroke-width="2" stroke-linecap="round" stroke-linejoin="round" stroke-miterlimit="10" d="
			M633.486,372.822c-3.455-3.044-3.097-6.634-2.795-10.215c0.739-0.264,1.481-0.523,2.223-0.785
			c1.426,2.184,2.854,4.364,3.941,6.028c-0.425,2.95-0.783,5.446-1.142,7.942"/>
		<path fill="none" stroke="#000000" stroke-width="2" stroke-linecap="round" stroke-linejoin="round" stroke-miterlimit="10" d="
			M709.27,566c-0.247,8.42-0.493,16.84-0.741,25.262"/>
		<path fill="none" stroke="#000000" stroke-width="2" stroke-linecap="round" stroke-linejoin="round" stroke-miterlimit="10" d="
			M769.453,313.384c2.018,8.443-4.092,11.855-9.66,15.602"/>
		<path fill="none" stroke="#000000" stroke-width="2" stroke-linecap="round" stroke-linejoin="round" stroke-miterlimit="10" d="
			M762.023,345.332c5.59,5.178,5.68,5.6,2.229,10.401"/>
		<path fill="none" stroke="#000000" stroke-width="2" stroke-linecap="round" stroke-linejoin="round" stroke-miterlimit="10" d="
			M714.471,118.72c0,3.467,0.187,6.948-0.063,10.397c-0.178,2.499-0.928,4.957-1.422,7.434"/>
		<path fill="none" stroke="#000000" stroke-width="2" stroke-linecap="round" stroke-linejoin="round" stroke-miterlimit="10" d="
			M702.584,308.183c1.797,0.873,3.598,1.746,5.395,2.621c0.32-0.424,0.64-0.85,0.959-1.273c0.357,1.036,0.656,2.1,1.097,3.102
			c0.354,0.812,0.881,1.549,1.647,2.859c2.252-1.242,4.377-2.418,6.504-3.594"/>
		<path fill="none" stroke="#000000" stroke-width="2" stroke-linecap="round" stroke-linejoin="round" stroke-miterlimit="10" d="
			M607.481,240.57c-1.083-1.364-2.167-2.729-3.251-4.094c-0.642,0.348-1.281,0.695-1.923,1.043c1.478,3.245,2.955,6.491,4.432,9.737
			"/>
		<path fill="none" stroke="#000000" stroke-width="2" stroke-linecap="round" stroke-linejoin="round" stroke-miterlimit="10" d="
			M831.863,157.355c3.467,0,6.936,0,10.401,0"/>
		<path fill="none" stroke="#000000" stroke-width="2" stroke-linecap="round" stroke-linejoin="round" stroke-miterlimit="10" d="
			M721.9,141.01c-2.724,2.724-5.447,5.449-8.172,8.173"/>
		<path fill="none" stroke="#000000" stroke-width="2" stroke-linecap="round" stroke-linejoin="round" stroke-miterlimit="10" d="
			M779.111,334.93c1.918,4.675,0.932,7.896-4.574,8.964c-2.143-4.477,0.291-6.951,3.832-8.964"/>
		<path fill="none" stroke="#000000" stroke-width="2" stroke-linecap="round" stroke-linejoin="round" stroke-miterlimit="10" d="
			M799.172,311.897c0.248-1.237,1.027-3.358,0.662-3.578c-3.844-2.321-10.035-0.62-14.289,3.845c0.793,1.34,1.639,2.766,2.482,4.19"
			/>
		<path fill="none" stroke="#000000" stroke-width="2" stroke-linecap="round" stroke-linejoin="round" stroke-miterlimit="10" d="
			M707.785,287.378c-4.283-1.523-7.773-0.989-9.66,3.716"/>
		<path fill="none" stroke="#000000" stroke-width="2" stroke-linecap="round" stroke-linejoin="round" stroke-miterlimit="10" d="
			M663.947,262.117c-3.467,0-6.935,0-10.4,0"/>
		<path fill="none" stroke="#000000" stroke-width="2" stroke-linecap="round" stroke-linejoin="round" stroke-miterlimit="10" d="
			M695.154,487.242c0,3.467,0,6.936,0,10.402"/>
		<path fill="none" stroke="#000000" stroke-width="2" stroke-linecap="round" stroke-linejoin="round" stroke-miterlimit="10" d="
			M782.084,299.267c1.484,3.467,2.971,6.936,4.457,10.4"/>
		<path fill="none" stroke="#000000" stroke-width="2" stroke-linecap="round" stroke-linejoin="round" stroke-miterlimit="10" d="
			M902.447,161.813c1.766,1.701,3.533,3.401,5.516,5.313c-1.244,1.615-2.424,3.146-3.813,4.946
			c-0.457-1.345-0.709-2.087-0.961-2.829"/>
		<path fill="none" stroke="#000000" stroke-width="2" stroke-linecap="round" stroke-linejoin="round" stroke-miterlimit="10" d="
			M645.373,327.5c-0.781,6.028-0.781,6.028,4.459,8.916c0.514-0.342,1.027-0.687,1.543-1.028c-1.752-2.63-3.506-5.257-5.258-7.888"
			/>
		<path fill="none" stroke="#000000" stroke-width="2" stroke-linecap="round" stroke-linejoin="round" stroke-miterlimit="10" d="
			M686.238,461.98c-0.496,3.467-0.992,6.936-1.486,10.402"/>
		<path fill="none" stroke="#000000" stroke-width="2" stroke-linecap="round" stroke-linejoin="round" stroke-miterlimit="10" d="
			M803.631,105.347c0.248,3.467,0.494,6.935,0.742,10.401"/>
		<path fill="none" stroke="#000000" stroke-width="2" stroke-linecap="round" stroke-linejoin="round" stroke-miterlimit="10" d="
			M707.785,230.912c-1.531-1.226-3.063-2.451-4.799-3.84c-1.9,3.581-3.354,6.319-5.121,9.649c2.248,1.486,4.598,3.039,6.947,4.592"
			/>
		<path fill="none" stroke="#000000" stroke-width="2" stroke-linecap="round" stroke-linejoin="round" stroke-miterlimit="10" d="
			M806.602,369.851c-0.143,2.219-0.289,4.438-0.502,7.711c-0.889,1.271-2.422,3.467-3.955,5.662"/>
		<path fill="none" stroke="#000000" stroke-width="2" stroke-linecap="round" stroke-linejoin="round" stroke-miterlimit="10" d="
			M715.957,256.916c1.238,3.22,2.477,6.438,3.715,9.659"/>
		<path fill="none" stroke="#000000" stroke-width="2" stroke-linecap="round" stroke-linejoin="round" stroke-miterlimit="10" d="
			M894.275,190.047c0-2.725,0-5.45,0-8.176c0.692-0.148,1.389-0.296,2.082-0.443c1.039,3.121,2.077,6.24,3.116,9.362"/>
		<path fill="none" stroke="#000000" stroke-width="2" stroke-linecap="round" stroke-linejoin="round" stroke-miterlimit="10" d="
			M704.07,564.513c1.961,4.502-2.84,10.428,2.971,14.117"/>
		<path fill="none" stroke="#000000" stroke-width="2" stroke-linecap="round" stroke-linejoin="round" stroke-miterlimit="10" d="
			M698.125,561.541c-2.072,3.689-5.602,3.01-8.916,2.973"/>
		<path fill="none" stroke="#000000" stroke-width="2" stroke-linecap="round" stroke-linejoin="round" stroke-miterlimit="10" d="
			M695.154,447.121c-1.982,2.477-3.963,4.953-5.945,7.43"/>
		<path fill="none" stroke="#000000" stroke-width="2" stroke-linecap="round" stroke-linejoin="round" stroke-miterlimit="10" d="
			M743.447,112.033c0.496,2.972,0.992,5.944,1.485,8.916"/>
		<path fill="none" stroke="#000000" stroke-width="2" stroke-linecap="round" stroke-linejoin="round" stroke-miterlimit="10" d="
			M701.098,552.625c1.023,3.045,2.045,6.09,3.271,9.74c-2.617,1.875-5.918,4.24-9.215,6.605"/>
		<path fill="none" stroke="#000000" stroke-width="2" stroke-linecap="round" stroke-linejoin="round" stroke-miterlimit="10" d="
			M698.125,536.279c1.486,4.459,2.973,8.916,4.459,13.375"/>
		<path fill="none" stroke="#000000" stroke-width="2" stroke-linecap="round" stroke-linejoin="round" stroke-miterlimit="10" d="
			M656.518,281.435c-4.799,4.667-4.799,4.667-8.172,1.486"/>
		<path fill="none" stroke="#000000" stroke-width="2" stroke-linecap="round" stroke-linejoin="round" stroke-miterlimit="10" d="
			M594.852,249.486c1.734,2.478,3.468,4.952,5.201,7.43"/>
		<path fill="none" stroke="#000000" stroke-width="2" stroke-linecap="round" stroke-linejoin="round" stroke-miterlimit="10" d="
			M697.383,125.407c-2.576,2.477-3.367,4.953-0.227,7.926c-0.633,1.426-1.488,3.351-2.619,5.899c1.582,0.129,2.584,0.21,3.588,0.292
			"/>
		<path fill="none" stroke="#000000" stroke-width="2" stroke-linecap="round" stroke-linejoin="round" stroke-miterlimit="10" d="
			M814.031,132.094c-0.99,2.724-1.98,5.449-2.972,8.173"/>
		<path fill="none" stroke="#000000" stroke-width="2" stroke-linecap="round" stroke-linejoin="round" stroke-miterlimit="10" d="
			M734.531,107.575c-0.248,2.724-0.494,5.449-0.742,8.173"/>
		<path fill="none" stroke="#000000" stroke-width="2" stroke-linecap="round" stroke-linejoin="round" stroke-miterlimit="10" d="
			M689.209,308.925c0.293,2.756-1.287,6.262,2.973,7.43"/>
		<path fill="none" stroke="#000000" stroke-width="2" stroke-linecap="round" stroke-linejoin="round" stroke-miterlimit="10" d="
			M633.486,257.659c-0.863,1.147-1.726,2.297-3.058,4.07c1.896,0.782,3.222,1.328,4.541,1.873"/>
		<path fill="none" stroke="#000000" stroke-width="2" stroke-linecap="round" stroke-linejoin="round" stroke-miterlimit="10" d="
			M685.494,181.874c-0.248,1.486-0.551,2.965-0.729,4.46c-0.295,2.471-0.508,4.951-0.756,7.429"/>
		<path fill="none" stroke="#000000" stroke-width="2" stroke-linecap="round" stroke-linejoin="round" stroke-miterlimit="10" d="
			M732.303,118.72c-1.979,2.477-3.963,4.953-5.942,7.43"/>
		<path fill="none" stroke="#000000" stroke-width="2" stroke-linecap="round" stroke-linejoin="round" stroke-miterlimit="10" d="
			M725.615,123.921c-0.742-0.495-1.486-0.989-2.738-1.822c-1.57,2.603-3.131,5.185-4.691,7.767"/>
		<path fill="none" stroke="#000000" stroke-width="2" stroke-linecap="round" stroke-linejoin="round" stroke-miterlimit="10" d="
			M731.561,122.435c0.742,2.724,1.486,5.449,2.229,8.173"/>
		<path fill="none" stroke="#000000" stroke-width="2" stroke-linecap="round" stroke-linejoin="round" stroke-miterlimit="10" d="
			M707.041,105.347c1.486,2.477,2.973,4.953,4.459,7.43"/>
		<path fill="none" stroke="#000000" stroke-width="2" stroke-linecap="round" stroke-linejoin="round" stroke-miterlimit="10" d="
			M616.396,221.252c0-1.237,0-2.477,0-4.561c4.075,1.215,4.934,4.442,5.942,7.533"/>
		<path fill="none" stroke="#000000" stroke-width="2" stroke-linecap="round" stroke-linejoin="round" stroke-miterlimit="10" d="
			M663.947,263.603c-1.933,2.736-3.865,5.471-5.797,8.207c0.575,0.539,1.153,1.08,1.729,1.622c3.373-1.706,6.744-3.411,12.449-6.298
			c-2.252-0.986-3.459-1.516-4.666-2.045"/>
		<path fill="none" stroke="#000000" stroke-width="2" stroke-linecap="round" stroke-linejoin="round" stroke-miterlimit="10" d="
			M616.396,224.225c0.59,2.571,1.178,5.145,2.172,9.49c2.102-2.803,2.938-3.918,3.771-5.032"/>
		<path fill="none" stroke="#000000" stroke-width="2" stroke-linecap="round" stroke-linejoin="round" stroke-miterlimit="10" d="
			M753.85,125.407c-2.477-0.991-4.953-1.981-7.43-2.972"/>
		<path fill="none" stroke="#000000" stroke-width="2" stroke-linecap="round" stroke-linejoin="round" stroke-miterlimit="10" d="
			M638.688,219.767c1.576,1.155,3.156,2.31,4.72,3.454c0.977-0.977,1.473-1.473,2.242-2.244c-0.804-1.342-1.654-2.762-2.505-4.182"
			/>
		<path fill="none" stroke="#000000" stroke-width="2" stroke-linecap="round" stroke-linejoin="round" stroke-miterlimit="10" d="
			M643.887,346.817c0.248,2.478,0.496,4.953,0.744,7.431"/>
		<path fill="none" stroke="#000000" stroke-width="2" stroke-linecap="round" stroke-linejoin="round" stroke-miterlimit="10" d="
			M698.125,349.791c0.406,3.231-3.93,7.194,1.486,9.658"/>
		<path fill="none" stroke="#000000" stroke-width="2" stroke-linecap="round" stroke-linejoin="round" stroke-miterlimit="10" d="
			M697.383,360.935c-2.389,4.863,1.504,3.449,3.715,3.715"/>
		<path fill="none" stroke="#000000" stroke-width="2" stroke-linecap="round" stroke-linejoin="round" stroke-miterlimit="10" d="
			M678.809,496.158c0,2.479,0,4.953,0,7.43"/>
		<path fill="none" stroke="#000000" stroke-width="2" stroke-linecap="round" stroke-linejoin="round" stroke-miterlimit="10" d="
			M779.854,252.458c1.734,1.98,3.468,3.963,5.201,5.943"/>
		<path fill="none" stroke="#000000" stroke-width="2" stroke-linecap="round" stroke-linejoin="round" stroke-miterlimit="10" d="
			M637.201,250.972c-4.303,0.208-3.035,2.805-2.23,5.201"/>
		<path fill="none" stroke="#000000" stroke-width="2" stroke-linecap="round" stroke-linejoin="round" stroke-miterlimit="10" d="
			M767.223,276.977c4.466,3.7,5.953,8.495,5.201,14.117"/>
		<path fill="none" stroke="#000000" stroke-width="2" stroke-linecap="round" stroke-linejoin="round" stroke-miterlimit="10" d="
			M732.303,260.631c-0.248,2.229-0.494,4.458-0.742,6.687"/>
		<path fill="none" stroke="#000000" stroke-width="2" stroke-linecap="round" stroke-linejoin="round" stroke-miterlimit="10" d="
			M637.943,314.126c0-2.229,0-4.455,0-7.92c-2.797,1.86-4,2.66-5.201,3.461"/>
		<path fill="none" stroke="#000000" stroke-width="2" stroke-linecap="round" stroke-linejoin="round" stroke-miterlimit="10" d="
			M684.01,199.706c0.99,1.98,1.98,3.963,2.972,5.943"/>
		<path fill="none" stroke="#000000" stroke-width="2" stroke-linecap="round" stroke-linejoin="round" stroke-miterlimit="10" d="
			M821.461,283.663c-1.947,4.066-5.691,2.738-8.916,2.973"/>
		<path fill="none" stroke="#000000" stroke-width="2" stroke-linecap="round" stroke-linejoin="round" stroke-miterlimit="10" d="
			M652.803,525.134c-0.248,2.23-0.494,4.459-0.742,6.688"/>
		<path fill="none" stroke="#000000" stroke-width="2" stroke-linecap="round" stroke-linejoin="round" stroke-miterlimit="10" d="
			M665.434,201.935c-1.733,2.229-3.467,4.458-5.2,6.688"/>
		<path fill="none" stroke="#000000" stroke-width="2" stroke-linecap="round" stroke-linejoin="round" stroke-miterlimit="10" d="
			M611.196,211.594c-5.1-4.204-6.85,4.158-10.999,2.6c-1.533-0.619-3.068-1.238-4.603-1.856"/>
		<path fill="none" stroke="#000000" stroke-width="2" stroke-linecap="round" stroke-linejoin="round" stroke-miterlimit="10" d="
			M845.98,144.725c2.229,0.743,4.456,1.486,6.688,2.229"/>
		<path fill="none" stroke="#000000" stroke-width="2" stroke-linecap="round" stroke-linejoin="round" stroke-miterlimit="10" d="
			M791,233.883c-2.23,1.734-4.459,3.467-6.688,5.201"/>
		<path fill="none" stroke="#000000" stroke-width="2" stroke-linecap="round" stroke-linejoin="round" stroke-miterlimit="10" d="
			M721.158,585.316c1.238,4.459,2.477,8.916,3.715,13.375"/>
		<path fill="none" stroke="#000000" stroke-width="2" stroke-linecap="round" stroke-linejoin="round" stroke-miterlimit="10" d="
			M594.109,258.401c1.426,2.266,2.854,4.533,4.795,7.615c1.067-2.483,1.852-4.307,2.635-6.129"/>
		<path fill="none" stroke="#000000" stroke-width="2" stroke-linecap="round" stroke-linejoin="round" stroke-miterlimit="10" d="
			M739.732,261.374c3.911,2.392,0.69,5.43,0.743,8.173c-0.497,0.248-0.995,0.497-1.493,0.746c-1.73-3.468-3.464-6.937-5.193-10.405"
			/>
		<path fill="none" stroke="#000000" stroke-width="2" stroke-linecap="round" stroke-linejoin="round" stroke-miterlimit="10" d="
			M696.639,413.687c-0.494,4.21-0.989,8.422-1.483,12.631"/>
		<path fill="none" stroke="#000000" stroke-width="2" stroke-linecap="round" stroke-linejoin="round" stroke-miterlimit="10" d="
			M780.598,119.463c-0.744,2.229-1.485,4.458-2.229,6.687"/>
		<path fill="none" stroke="#000000" stroke-width="2" stroke-linecap="round" stroke-linejoin="round" stroke-miterlimit="10" d="
			M838.551,149.926c2.229,0.991,4.457,1.981,6.687,2.972"/>
		<path fill="none" stroke="#000000" stroke-width="2" stroke-linecap="round" stroke-linejoin="round" stroke-miterlimit="10" d="
			M618.625,205.649c-1.98,1.486-3.963,2.973-5.943,4.458"/>
		<path fill="none" stroke="#000000" stroke-width="2" stroke-linecap="round" stroke-linejoin="round" stroke-miterlimit="10" d="
			M676.578,335.673c-0.732,5.677-1.445,11.361-5.943,15.603"/>
		<path fill="none" stroke="#000000" stroke-width="2" stroke-linecap="round" stroke-linejoin="round" stroke-miterlimit="10" d="
			M723.387,248c0,2.478-0.315,5.007,0.084,7.415c0.457,2.755,0.529,4.717-3.055,4.473"/>
		<path fill="none" stroke="#000000" stroke-width="2" stroke-linecap="round" stroke-linejoin="round" stroke-miterlimit="10" d="
			M600.053,230.168c-0.99,1.981-1.979,3.963-2.971,5.944"/>
		<path fill="none" stroke="#000000" stroke-width="2" stroke-linecap="round" stroke-linejoin="round" stroke-miterlimit="10" d="
			M805.115,373.565c-1.236,1.979-2.478,3.963-3.715,5.942"/>
		<path fill="none" stroke="#000000" stroke-width="2" stroke-linecap="round" stroke-linejoin="round" stroke-miterlimit="10" d="
			M744.934,405.514c0.248,1.981,0.494,3.963,0.744,5.944"/>
		<path fill="none" stroke="#000000" stroke-width="2" stroke-linecap="round" stroke-linejoin="round" stroke-miterlimit="10" d="
			M765.738,361.677c0.785,1.211,1.573,2.421,2.342,3.603c-1.6,1.599-3.086,3.085-4.572,4.571"/>
		<path fill="none" stroke="#000000" stroke-width="2" stroke-linecap="round" stroke-linejoin="round" stroke-miterlimit="10" d="
			M847.467,216.052c-3.467,0.743-7.498,0.61-10.287,2.409c-6.014,3.877-12.194,3.7-18.688,2.791"/>
		<path fill="none" stroke="#000000" stroke-width="2" stroke-linecap="round" stroke-linejoin="round" stroke-miterlimit="10" d="
			M822.947,259.888c-1.238,1.734-2.478,3.467-3.715,5.201"/>
		<path fill="none" stroke="#000000" stroke-width="2" stroke-linecap="round" stroke-linejoin="round" stroke-miterlimit="10" d="
			M730.816,187.075c-3.468-2.831-6.935-1.415-10.4,0"/>
		<path fill="none" stroke="#000000" stroke-width="2" stroke-linecap="round" stroke-linejoin="round" stroke-miterlimit="10" d="
			M648.346,172.958c-1.733,0.248-3.467,0.495-5.201,0.743"/>
		<path fill="none" stroke="#000000" stroke-width="2" stroke-linecap="round" stroke-linejoin="round" stroke-miterlimit="10" d="
			M741.219,564.513c-3.914,2.736-7.621,2.381-11.145-0.742"/>
		<path fill="none" stroke="#000000" stroke-width="2" stroke-linecap="round" stroke-linejoin="round" stroke-miterlimit="10" d="
			M920.279,172.958c-0.5-0.988-1.002-1.975-1.332-2.626c-2.342,0.39-4.592,0.766-6.842,1.14"/>
		<path fill="none" stroke="#000000" stroke-width="2" stroke-linecap="round" stroke-linejoin="round" stroke-miterlimit="10" d="
			M729.332,132.094c0,1.981,0,3.963,0,5.944"/>
		<path fill="none" stroke="#000000" stroke-width="2" stroke-linecap="round" stroke-linejoin="round" stroke-miterlimit="10" d="
			M695.154,114.262c0.248,3.22,0.494,6.439,0.742,9.659"/>
		<path fill="none" stroke="#000000" stroke-width="2" stroke-linecap="round" stroke-linejoin="round" stroke-miterlimit="10" d="
			M828.891,215.309c-0.741,1.98-1.483,3.963-2.229,5.943"/>
		<path fill="none" stroke="#000000" stroke-width="2" stroke-linecap="round" stroke-linejoin="round" stroke-miterlimit="10" d="
			M727.846,612.064c0.494,1.98,0.99,3.963,1.486,5.943"/>
		<path fill="none" stroke="#000000" stroke-width="2" stroke-linecap="round" stroke-linejoin="round" stroke-miterlimit="10" d="
			M662.463,187.818c0.99,1.734,1.98,3.467,2.971,5.2"/>
		<path fill="none" stroke="#000000" stroke-width="2" stroke-linecap="round" stroke-linejoin="round" stroke-miterlimit="10" d="
			M703.326,573.429c-1.238,1.486-2.478,2.973-3.715,4.457"/>
		<path fill="none" stroke="#000000" stroke-width="2" stroke-linecap="round" stroke-linejoin="round" stroke-miterlimit="10" d="
			M839.293,141.01c0.248,1.734,0.496,3.467,0.744,5.201"/>
		<path fill="none" stroke="#000000" stroke-width="2" stroke-linecap="round" stroke-linejoin="round" stroke-miterlimit="10" d="
			M697.383,460.496c-0.127,2.729-0.252,5.459-0.399,8.701c0.622,0.051,1.625,0.133,2.629,0.215"/>
		<path fill="none" stroke="#000000" stroke-width="2" stroke-linecap="round" stroke-linejoin="round" stroke-miterlimit="10" d="
			M671.379,219.767c0.99,1.485,1.98,2.972,2.971,4.458"/>
		<path fill="none" stroke="#000000" stroke-width="2" stroke-linecap="round" stroke-linejoin="round" stroke-miterlimit="10" d="
			M702.584,97.917c0.99,1.486,1.98,2.972,2.971,4.458"/>
		<path fill="none" stroke="#000000" stroke-width="2" stroke-linecap="round" stroke-linejoin="round" stroke-miterlimit="10" d="
			M695.154,404.028c0.182,3.625-1.861,8.359,4.457,8.915"/>
		<path fill="none" stroke="#000000" stroke-width="2" stroke-linecap="round" stroke-linejoin="round" stroke-miterlimit="10" d="
			M678.809,234.627c0.99,1.485,1.98,2.971,2.972,4.457"/>
		<path fill="none" stroke="#000000" stroke-width="2" stroke-linecap="round" stroke-linejoin="round" stroke-miterlimit="10" d="
			M734.531,297.038c-3.715,3.617-7.431,1.005-11.146,0"/>
		<path fill="none" stroke="#000000" stroke-width="2" stroke-linecap="round" stroke-linejoin="round" stroke-miterlimit="10" d="
			M766.48,270.29c-1.238,0.742-2.478,1.486-3.716,2.229"/>
		<path fill="none" stroke="#000000" stroke-width="2" stroke-linecap="round" stroke-linejoin="round" stroke-miterlimit="10" d="
			M733.047,106.089c-1.238,0.743-2.479,1.486-3.715,2.229"/>
		<path fill="none" stroke="#000000" stroke-width="2" stroke-linecap="round" stroke-linejoin="round" stroke-miterlimit="10" d="
			M848.953,122.435c-1.238,0.743-2.479,1.486-3.717,2.229"/>
		<path fill="none" stroke="#000000" stroke-width="2" stroke-linecap="round" stroke-linejoin="round" stroke-miterlimit="10" d="
			M690.695,139.524c0.358,1.036,0.719,2.074,1.289,3.725c1.106-1.36,1.766-2.171,2.426-2.982"/>
		<path fill="none" stroke="#000000" stroke-width="2" stroke-linecap="round" stroke-linejoin="round" stroke-miterlimit="10" d="
			M689.209,178.159c-0.742,0.743-1.484,1.486-2.229,2.229"/>
		<path fill="none" stroke="#000000" stroke-width="2" stroke-linecap="round" stroke-linejoin="round" stroke-miterlimit="10" d="
			M775.396,277.72c-0.742,0.743-1.486,1.486-2.229,2.229"/>
		<path fill="none" stroke="#000000" stroke-width="2" stroke-linecap="round" stroke-linejoin="round" stroke-miterlimit="10" d="
			M682.523,195.248c0,0.991,0,1.981,0,2.972"/>
		<path fill="none" stroke="#000000" stroke-width="2" stroke-linecap="round" stroke-linejoin="round" stroke-miterlimit="10" d="
			M693.668,438.205c0.742,0.992,1.486,1.98,2.229,2.973"/>
		<path fill="none" stroke="#000000" stroke-width="2" stroke-linecap="round" stroke-linejoin="round" stroke-miterlimit="10" d="
			M698.125,441.177c-1.277,0.359-2.553,0.723-4.146,1.172c1.662,1.316,2.904,2.301,4.146,3.287"/>
		<path fill="none" stroke="#000000" stroke-width="2" stroke-linecap="round" stroke-linejoin="round" stroke-miterlimit="10" d="
			M802.145,326.757c-0.743,0.99-1.485,1.979-2.229,2.973"/>
		<path fill="none" stroke="#000000" stroke-width="2" stroke-linecap="round" stroke-linejoin="round" stroke-miterlimit="10" d="
			M712.986,579.373c0.248,0.744,0.494,1.486,0.742,2.229"/>
		<path fill="none" stroke="#000000" stroke-width="2" stroke-linecap="round" stroke-linejoin="round" stroke-miterlimit="10" d="
			M902.447,164.042c-0.248,0.495-0.525,0.979-0.729,1.492c-0.086,0.213-0.014,0.489-0.014,0.737"/>
		<path fill="none" stroke="#000000" stroke-width="2" stroke-linecap="round" stroke-linejoin="round" stroke-miterlimit="10" d="
			M762.766,355.733c4.949,2.478,2.357,4.953,0,7.431"/>
		<path fill="none" stroke="#000000" stroke-width="2" stroke-linecap="round" stroke-linejoin="round" stroke-miterlimit="10" d="
			M683.266,335.673c-0.741-0.248-1.485-0.495-2.229-0.743"/>
		<path fill="none" stroke="#000000" stroke-width="2" stroke-linecap="round" stroke-linejoin="round" stroke-miterlimit="10" d="
			M724.131,260.631c0.248,0.743,0.494,1.486,0.742,2.229"/>
		<path fill="none" stroke="#000000" stroke-width="2" stroke-linecap="round" stroke-linejoin="round" stroke-miterlimit="10" d="
			M736.762,234.627c-4.926,2.477-3.465,4.952-0.326,7.768c4.011-2.186,4.953-4.338,1.068-7.025"/>
	</g>
</g>
</svg>
