<?xml version="1.0" encoding="utf-8"?>
<!-- Generator: Adobe Illustrator 16.0.0, SVG Export Plug-In . SVG Version: 6.00 Build 0)  -->
<!DOCTYPE svg PUBLIC "-//W3C//DTD SVG 1.1//EN" "http://www.w3.org/Graphics/SVG/1.1/DTD/svg11.dtd">
<svg version="1.1" id="Layer_1" xmlns="http://www.w3.org/2000/svg" xmlns:xlink="http://www.w3.org/1999/xlink" x="0px" y="0px"
	 width="703.333px" height="459.333px" viewBox="0 0 703.333 459.333" enable-background="new 0 0 703.333 459.333"
	 xml:space="preserve">
<path id="kocka" fill="#949599" d="M470.856,286.432c0,0-156.677-28.877-247.044-22.842V34.49c0,0,150.464,3.662,247.044-22.058
	V286.432z"/>
<path id="plavi" fill="#6A85B8" d="M205.227,37.348h-9.447c0,0,12.945,131.918-13.299,225.349h20.994
	C203.475,262.697,220.622,181.165,205.227,37.348z"/>
<path id="zeleni" fill="#3B9944" d="M501.739,280.189h-13.076V24.4h33.414C496.489,211.694,501.739,280.189,501.739,280.189z"/>
<path id="p-glavni" fill="#E6E6E6" d="M470.856,62.965v-5.367c-95.145,47.439-109.654,114.73-188.931,205.945l25.435,1.556
	C372.454,191.778,380.051,114.315,470.856,62.965z"/>
<path id="p-rep" fill="#E6E6E6" d="M223.812,197.187c0,0,0.026,0.017,1.278,0.816c0.627,0.408,1.383,0.79,2.279,1.31
	c0.917,0.474,1.99,1.034,3.223,1.562c2.455,1.089,5.553,2.184,9.238,2.907c3.68,0.721,7.939,1.106,12.586,0.841
	c2.322-0.124,4.733-0.426,7.215-0.846c2.473-0.469,5.019-1.037,7.592-1.809c5.147-1.524,10.435-3.665,15.676-6.35
	c5.246-2.677,10.464-5.865,15.521-9.457c5.074-3.572,9.983-7.554,14.695-11.756c9.406-8.435,17.938-17.841,25.185-27.23
	c7.271-9.377,13.244-18.749,17.853-27.053c4.602-8.313,7.85-15.558,9.895-20.71c1.039-2.572,1.781-4.622,2.275-6.022
	c0.492-1.403,0.754-2.151,0.754-2.151s-0.252,0.752-0.721,2.162c-0.475,1.408-1.188,3.47-2.189,6.058
	c-1.969,5.187-5.113,12.487-9.604,20.888c-4.494,8.392-10.346,17.879-17.509,27.404c-7.139,9.537-15.572,19.122-24.93,27.765
	c-4.688,4.308-9.585,8.4-14.666,12.092c-5.066,3.711-10.311,7.025-15.615,9.831c-5.299,2.813-10.676,5.087-15.953,6.735
	c-2.637,0.833-5.261,1.462-7.817,1.984c-2.567,0.474-5.073,0.825-7.499,0.99c-4.85,0.351-9.349,0.015-13.257-0.691
	c-3.914-0.709-7.229-1.824-9.857-2.943c-0.669-0.255-1.274-0.56-1.851-0.829c-0.574-0.282-1.12-0.509-1.613-0.787
	c-0.977-0.542-1.561-0.808-2.184-1.201c-1.265-0.782,0,0,0,0V197.187L223.812,197.187z"/>
<g id="p-gore">
	<path fill="#E6E6E6" d="M223.812,155.077l-0.031-6.456c28.969-53.038,57.733-70.188,83.719-82.663
		c31.607-15.174,66.756-19.569,96.182-12.722c32.842,7.646,52.449,28.031,52.449,54.532h-3c0-25.009-18.74-44.303-50.131-51.61
		C344.813,42.613,265.118,71.166,223.812,155.077z"/>
</g>
<path id="p-dole" fill="none" stroke="#E6E6E6" stroke-width="3" stroke-miterlimit="10" d="M404.899,173.64
	c19.729,0,49.73-37.518,49.73-65.872"/>
<g id="p-unutra">
	<path fill="#E6E6E6" d="M404.827,175.138c0,0-0.344-0.021-0.986-0.063c-0.322-0.021-0.719-0.046-1.186-0.076
		c-0.465-0.028-1.082-0.158-1.727-0.256c-0.324-0.058-0.674-0.104-1.025-0.183c-0.348-0.098-0.707-0.201-1.084-0.309
		c-0.375-0.117-0.773-0.201-1.168-0.36c-0.395-0.168-0.803-0.341-1.223-0.521c-1.639-0.778-3.48-1.898-4.92-3.704
		c-1.463-1.762-2.514-4.086-2.898-6.604c-0.4-2.52-0.191-5.194,0.449-7.8c0.639-2.612,1.695-5.176,3.07-7.582
		c1.369-2.408,2.957-4.734,4.791-6.841c0.865-1.098,1.873-2.065,2.809-3.089c1.004-0.956,1.98-1.934,3.018-2.823
		c1.049-0.877,2.053-1.79,3.139-2.575c1.061-0.817,2.109-1.617,3.195-2.328c0.535-0.366,1.066-0.729,1.592-1.088
		c0.535-0.346,1.08-0.666,1.609-0.995c1.061-0.657,2.1-1.296,3.15-1.846c2.063-1.18,4.096-2.128,5.951-3.038
		c1.904-0.806,3.617-1.621,5.197-2.191c1.576-0.578,2.922-1.153,4.076-1.502c2.285-0.754,3.592-1.185,3.592-1.185
		s-1.289,0.475-3.547,1.306c-1.143,0.387-2.465,1.007-4.02,1.637c-1.553,0.621-3.23,1.493-5.098,2.358
		c-1.816,0.968-3.803,1.978-5.807,3.217c-1.023,0.581-2.031,1.249-3.059,1.934c-0.514,0.343-1.041,0.677-1.557,1.038
		c-0.508,0.373-1.021,0.749-1.535,1.128c-1.049,0.738-2.057,1.562-3.07,2.401c-1.041,0.808-1.994,1.739-2.992,2.632
		c-0.988,0.906-1.908,1.896-2.855,2.861c-0.877,1.029-1.828,2.003-2.631,3.097c-1.709,2.104-3.158,4.396-4.383,6.733
		c-1.234,2.335-2.141,4.782-2.643,7.198c-0.506,2.411-0.596,4.805-0.178,6.942c0.406,2.142,1.338,3.987,2.555,5.359
		c1.191,1.41,2.719,2.257,4.098,2.858c0.354,0.139,0.697,0.271,1.029,0.4c0.334,0.124,0.684,0.18,1.004,0.269
		c0.322,0.082,0.633,0.16,0.93,0.234c0.297,0.055,0.58,0.079,0.848,0.118c0.549,0.061,0.986,0.161,1.455,0.175
		c0.467,0.014,0.865,0.025,1.188,0.035c0.646,0.02,0.988,0.03,0.988,0.03L404.827,175.138z"/>
</g>
<rect x="205.028" y="346.932" fill="none" width="294.502" height="50.501"/>
<text transform="matrix(0.7029 0 0 1 4.8491 393.4243)" fill="#E6E6E6" font-family="'OptimusPrinceps'" font-size="116.145">HOTEL PANONIJA</text>
<g>
	<text transform="matrix(1.05 0 0 1 333.7705 446.9009)" fill="#E6E6E6" font-family="'OptimusPrinceps'" font-size="47.21">Croatia</text>
	<circle fill="#6A85B8" cx="316.728" cy="431.263" r="3.864"/>
	<text transform="matrix(1.05 0 0 1 192.7354 446.9009)" fill="#E6E6E6" font-family="'OptimusPrinceps'" font-size="47.21">Sisak</text>
</g>
</svg>
